<?xml version="1.0" encoding="UTF-8" standalone="no"?>
<svg
   xmlns:dc="http://purl.org/dc/elements/1.1/"
   xmlns:cc="http://creativecommons.org/ns#"
   xmlns:rdf="http://www.w3.org/1999/02/22-rdf-syntax-ns#"
   xmlns:svg="http://www.w3.org/2000/svg"
   xmlns="http://www.w3.org/2000/svg"
   xmlns:xlink="http://www.w3.org/1999/xlink"
   xmlns:sodipodi="http://sodipodi.sourceforge.net/DTD/sodipodi-0.dtd"
   xmlns:inkscape="http://www.inkscape.org/namespaces/inkscape"
   version="1.1"
   id="Layer_1"
   x="0px"
   y="0px"
   viewBox="-2000 -2000 2140.1626 2302.4786"
   xml:space="preserve"
   sodipodi:docname="about-outline.svg"
   width="2140.1626"
   height="2302.4785"
   inkscape:version="1.0.1 (c497b03c, 2020-09-10)"><metadata
   id="metadata1269"><rdf:RDF><cc:Work
       rdf:about=""><dc:format>image/svg+xml</dc:format><dc:type
         rdf:resource="http://purl.org/dc/dcmitype/StillImage" /><dc:title></dc:title></cc:Work></rdf:RDF></metadata><defs
   id="defs1267" /><sodipodi:namedview
   pagecolor="#ffffff"
   bordercolor="#666666"
   borderopacity="1"
   objecttolerance="10"
   gridtolerance="10"
   guidetolerance="10"
   inkscape:pageopacity="0"
   inkscape:pageshadow="2"
   inkscape:window-width="1440"
   inkscape:window-height="847"
   id="namedview1265"
   inkscape:document-rotation="0"
   showgrid="false"
   inkscape:zoom="0.23263447"
   inkscape:cx="1306.7829"
   inkscape:cy="969.44222"
   inkscape:window-x="0"
   inkscape:window-y="25"
   inkscape:window-maximized="1"
   inkscape:current-layer="Layer_1" />
<style
   type="text/css"
   id="style2">
	.st0{fill:none;stroke:#084BA0;stroke-width:9.296;stroke-miterlimit:10;}
	.st1{fill:#084BA0;}
	.st2{fill:none;stroke:#19953A;stroke-width:9.296;stroke-miterlimit:10;}
	.st3{fill:#19953A;}
	.st4{fill:#232324;}
	.st5{fill:none;stroke:#E1DD19;stroke-width:8.8593;stroke-miterlimit:10;}
	.st6{fill:#E1DD19;}
	.st7{fill:#FFFFFF;}
	.st8{fill:none;stroke:#E1DD19;stroke-width:3.339;stroke-miterlimit:10;}
	.st9{clip-path:url(#SVGID_2_);fill:none;stroke:#F01C3F;stroke-width:8.5855;stroke-miterlimit:10;}
	.st10{clip-path:url(#SVGID_2_);fill:none;stroke:#F071A5;stroke-width:8.5855;stroke-miterlimit:10;}
	.st11{clip-path:url(#SVGID_2_);fill:none;stroke:#084BA0;stroke-width:8.5855;stroke-miterlimit:10;}
	.st12{clip-path:url(#SVGID_2_);fill:none;stroke:#19953A;stroke-width:8.4548;stroke-miterlimit:10;}
	.st13{fill:none;stroke:#E1DD19;stroke-width:8.5855;stroke-miterlimit:10;}
	.st14{fill:none;stroke:#19953A;stroke-width:2;stroke-miterlimit:10;}
	.st15{fill:#F01C3F;}
	.st16{fill:none;}
	.st17{font-family:'RockfordSans-Extrabold';}
	.st18{font-size:90px;}
	.st19{font-family:'RockfordSans-Light';}
	.st20{font-size:36px;}
	.st21{fill:none;stroke:#F01C3F;stroke-width:2;stroke-miterlimit:10;}
	.st22{font-size:28.9383px;}
	.st23{fill:none;stroke:#E1DD19;stroke-width:7.9447;stroke-miterlimit:10;}
	.st24{fill:none;stroke:#F01C3F;stroke-width:7.9447;stroke-miterlimit:10;}
	.st25{fill:none;stroke:#F071A5;stroke-width:7.9447;stroke-miterlimit:10;}
	.st26{fill:none;stroke:#084BA0;stroke-width:7.9447;stroke-miterlimit:10;}
	.st27{fill:none;stroke:#19953A;stroke-width:7.1413;stroke-miterlimit:10;}
	.st28{fill:none;stroke:#E1DD19;stroke-width:2;stroke-miterlimit:10;}
	.st29{fill:#242424;}
	.st30{fill:none;stroke:#084BA0;stroke-width:2;stroke-miterlimit:10;}
	.st31{fill:none;stroke:#DBCF29;stroke-width:8.5855;stroke-miterlimit:10;}
	.st32{fill:none;stroke:#DACF28;stroke-width:2;stroke-miterlimit:10;}
	.st33{fill:none;stroke:#19953A;stroke-width:8.586;stroke-miterlimit:10;}
	.st34{fill:none;stroke:#FFFFFF;stroke-width:1.8555;stroke-miterlimit:10;}
	.st35{fill:none;stroke:#E1DD19;stroke-width:3.339;stroke-linecap:round;stroke-linejoin:round;stroke-miterlimit:10;}
	.st36{fill:none;stroke:#FFFFFF;stroke-width:3.339;stroke-linecap:round;stroke-linejoin:round;stroke-miterlimit:10;}
	.st37{font-size:34px;}
	.st38{fill:#F071A5;}
	.st39{fill:none;stroke:#084BA0;stroke-width:3;stroke-miterlimit:10;}
	.st40{fill:none;stroke:#F071A5;stroke-width:4;stroke-miterlimit:10;}
	.st41{fill:none;stroke:#F071A5;stroke-width:2;stroke-miterlimit:10;}
	.st42{fill:none;stroke:#E1DD19;stroke-width:5;stroke-miterlimit:10;}
	.st43{clip-path:url(#SVGID_4_);fill:none;stroke:#F01C3F;stroke-width:8.5855;stroke-miterlimit:10;}
	.st44{clip-path:url(#SVGID_4_);fill:none;stroke:#F071A5;stroke-width:8.5855;stroke-miterlimit:10;}
	.st45{clip-path:url(#SVGID_4_);fill:none;stroke:#075397;stroke-width:8.5855;stroke-miterlimit:10;}
	.st46{clip-path:url(#SVGID_4_);fill:none;stroke:#19953A;stroke-width:8.4548;stroke-miterlimit:10;}
	.st47{fill:none;stroke:#E1DD19;stroke-width:2.9351;stroke-miterlimit:10;}
</style>






<path
   class="st5"
   d="m 4142.058,6099.788 c 125.96,-14.83 209.68,15.91 338.03,42.43 46.94,9.7 92.68,124.23 135.02,144.13 48.16,22.63 107.12,34.23 171.8,33.8 15.18,-0.1 31.36,-1 47.68,-7.42 23.04,-9.06 41.81,-27.16 58.67,-44.24 90.45,-91.65 174.56,-186.31 251.4,-282.94 25.86,-32.52 51.86,-66.2 87.99,-93.16 31.39,-23.43 68.02,-39.95 103.97,-55.16 88.99,-37.66 179.04,-70.33 269.01,-97.59 24.21,-7.34 49.15,-14.6 71.77,-28.09 33.99,-20.28 56.66,-50.78 78.25,-79.28 80.86,-106.74 174.2,-210.55 277.64,-308.76 61.02,-57.94 130.28,-121.25 142.04,-184 5.68,-30.3 -3.25,-56.39 -5.02,-84.64 -4.21,-67.16 131.21,-149.35 159.05,-212.37 6.46,-14.61 7.13,-28.19 -1.07,-40.31 -12.16,-17.98 -1.12,-37.83 14.56,-54.02 15.68,-16.19 38.44,-27.09 61.1,-36.91 42.62,-18.47 87.9,-34.73 136.23,-39.08 53.03,-4.76 106.15,5.08 158.78,12.06"
   id="path16" />































<rect
   x="4127.6982"
   y="4691.688"
   class="st7"
   width="2688.27"
   height="135.17999"
   id="rect232" />

























<polyline
   class="st29"
   points="-2081.58,8407.3 -1154.02,7995.42 -956.78,7593.8 -1548.57,7221.11 -2896.37,7509.93   -2817.87,7868.32 -2985.21,8329.7 "
   id="polyline340"
   transform="translate(7367.108,322.83798)" />
<rect
   x="4806.1279"
   y="8153.1177"
   class="st16"
   width="711.71002"
   height="341.54999"
   id="rect342" />
<text
   id="text350"
   x="4806.1304"
   y="8177.9341"><tspan
     x="4806.1304"
     y="8177.9341"
     class="st7 st19 st37"
     id="tspan344">Listen to our brand new podcast, talking to </tspan><tspan
     x="4806.1304"
     y="8223.9346"
     class="st7 st19 st37"
     id="tspan346">residents,  about the things that matter to</tspan><tspan
     x="4806.1304"
     y="8269.9346"
     class="st7 st19 st37"
     id="tspan348">us most.</tspan></text>
<rect
   x="4796.1279"
   y="7920.8677"
   class="st16"
   width="1476.51"
   height="216.17999"
   id="rect352" />
<text
   id="text358"
   x="4796.1279"
   y="7986.5645"><tspan
     x="4796.1279"
     y="7986.5645"
     class="st7 st17 st18"
     id="tspan354">The East Marsh</tspan><tspan
     x="4796.1279"
     y="8076.5645"
     class="st7 st17 st18"
     id="tspan356">Chronicles</tspan></text>
<polygon
   class="st3"
   points="-2679.17,8109.29 -2614.26,8146.76 -2679.17,8184.24 -2744.08,8221.71 -2744.08,8146.76 -2744.08,8071.81 "
   id="polygon360"
   transform="translate(7367.108,322.83798)" />
<rect
   x="4800.7578"
   y="8438.8379"
   class="st16"
   width="762.27002"
   height="99.709999"
   id="rect362" />
<text
   class="st7 st17"
   style="font-size:60px"
   id="text364"
   x="4800.7563"
   y="8482.6377">play latest episode </text>
<g
   id="g370"
   transform="translate(7367.108,322.83798)">
	<polygon
   class="st6"
   points="-2917.85,7633.88 -2917.85,7535.84 -2868.32,7421.29 -2821.88,7421.29 -2851.81,7524.48 -2808.46,7524.48 -2808.46,7633.88 "
   id="polygon366" />
	<polygon
   class="st6"
   points="-2767.18,7633.88 -2767.18,7535.84 -2717.65,7421.29 -2671.21,7421.29 -2701.14,7524.48 -2657.79,7524.48 -2657.79,7633.88 "
   id="polygon368" />
</g>
<g
   id="g376"
   transform="translate(7367.108,322.83798)">
	<polygon
   class="st6"
   points="-1729.86,8221.71 -1729.86,8309.32 -1774.12,8411.67 -1815.62,8411.67 -1788.88,8319.46 -1827.61,8319.46 -1827.61,8221.71 "
   id="polygon372" />
	<polygon
   class="st6"
   points="-1595.23,8221.71 -1595.23,8309.32 -1639.49,8411.67 -1680.99,8411.67 -1654.24,8319.46 -1692.97,8319.46 -1692.97,8221.71 "
   id="polygon374" />
</g>









<rect
   x="4141.8682"
   y="9017.4775"
   class="st29"
   width="2659.9199"
   height="454.23001"
   id="rect430" />
<polyline
   class="st7"
   points="-2838.95,9003.04 -2794.21,8853.42 -2887.86,8774.77 -2984.6,8780.73 -3078.2,9001.04   -2983.79,9019.9 -2944.27,9091.97 "
   id="polyline432"
   transform="translate(7367.108,322.83798)" />
<g
   id="g442"
   transform="translate(7367.108,322.83798)">
	<path
   class="st29"
   d="m -2964.71,8878.07 c -0.47,1.02 -1.56,1.4 -2.76,1.32 -2.62,-0.27 -7.57,-1.04 -11.85,-0.77 -2.11,0.14 -6.91,0.4 -8.33,0.2 -2.28,-0.27 -12.11,1.34 -12.08,-0.77 -0.04,-1.14 -0.04,-4.16 -0.18,-6.11 -0.25,-2.11 0.46,-10.43 0.49,-12.25 0.02,-0.91 -0.2,-4.96 -0.14,-8.67 0.01,-0.74 -0.25,-2 -0.24,-2.8 0.02,-1.25 0.21,-2.11 0.16,-2.91 -0.25,-2.12 -0.04,-4.17 0.09,-5.36 3.49,-0.46 8.27,-0.2 10.5,-0.4 1.54,-0.09 6.23,-0.52 8.45,-0.32 4.27,0.47 9.24,-0.19 11.93,-0.32 1.14,-0.09 2.39,0.38 2.83,1.42 0.38,1.03 -0.15,2.22 -0.2,4.9 l -0.17,3.19 c -1.89,0.37 -8.04,-0.13 -12.15,0.2 -2.06,0.19 -5.65,0.13 -8.79,0.14 -0.07,1.03 -0.09,1.94 -0.04,2.45 0.04,0.8 -0.21,2.11 -0.25,4.73 v 0.11 c 1.71,-0.03 2.91,-0.01 4.11,-0.16 3.31,-0.29 4.45,-0.27 9.25,-0.64 2.46,-0.19 2.6,1.24 2.58,2.44 l 0.13,6.05 c -3.55,0.8 -6.05,0.13 -10.1,0.34 -1.43,0.09 -3.37,0.29 -5.94,0.53 0.03,1.77 0.11,3.54 0.14,5.02 2.63,-0.13 5.08,-0.2 6.45,-0.06 2.51,0.16 4.56,-0.09 6.33,-0.07 4.28,0.07 8.04,0.13 9.86,0.56 l 0.13,2.57 c 0.35,2.66 0.44,4.37 -0.21,5.44 z"
   id="path434" />
	<path
   class="st29"
   d="m -2926.94,8880.47 c -2,0.48 -7.77,1.07 -9.17,-0.95 -0.7,-2.29 -0.86,-3.27 -1.17,-5.15 -1.6,0.2 -3.54,0.28 -5.88,0.24 l -7.48,0.39 c -0.3,1.08 -0.66,2.21 -0.96,3.01 -1.13,2.83 -3.18,2.57 -5.74,2.3 -1.31,-0.14 -3.81,-0.46 -5.23,-0.77 -1.48,-0.25 -2.28,-0.32 -1.5,-2.54 1.81,-5.73 5.86,-16.33 6.35,-18.03 0.49,-1.93 4.41,-11.45 5.25,-13.72 0.6,-1.59 1.26,-3.86 1.57,-4.99 0.36,-1.13 1.87,-2.59 3.12,-2.51 5.76,0.27 11.54,-0.89 12.12,1.63 0.48,2.06 2.62,10.42 4.24,15.93 1.94,6.65 3.25,10.43 3.41,11.18 0.37,1.55 2.07,9.05 2.5,10.99 0.31,1.42 -0.22,2.66 -1.43,2.99 z m -12.52,-15.1 c -0.48,-2.23 -0.9,-4.01 -1.06,-4.58 -0.21,-1.09 -1.42,-7.38 -2.42,-12.13 -1.16,4.71 -2.46,10.45 -3.6,13.86 -0.36,1.25 -0.84,2.44 -1.2,3.63 1.6,-0.03 2.97,-0.07 3.48,-0.11 0.97,-0.1 2.8,-0.36 4.8,-0.67 z"
   id="path436" />
	<path
   class="st29"
   d="m -2896.5,8878.46 c -3.39,1.31 -7.52,2.61 -13.16,2.52 -4.96,-0.08 -12.06,-1.68 -13.77,-8.67 -0.85,-3.61 -0.81,-6.06 -0.37,-8.45 l 6.62,-0.06 c 2.9,0.33 5.01,0.77 4.96,3.5 -0.06,3.42 0.88,5.6 5.44,5.68 2.79,0.05 4.03,-2.1 4.06,-4.21 0.04,-2.68 -2.78,-4.1 -7.3,-6.91 -4.35,-2.3 -8.95,-3.91 -10.22,-6.22 -1.66,-2.94 -2.02,-5.62 -1.97,-8.59 0.12,-7.18 7.78,-11.39 16.04,-11.25 10.49,0.17 16.51,5.52 16.81,11.17 0.09,1.6 -0.05,2.79 -0.24,4.16 l -6.68,0.52 c -2.79,-0.05 -3.74,-1.49 -3.7,-3.71 -0.03,-1.83 -1.51,-5.04 -4.76,-5.1 -2.51,-0.04 -4.98,1.29 -5.03,4.14 -0.04,2.11 1.76,4.19 6.41,5.64 9.31,2.78 11.37,5.38 12.85,9.17 0.93,2.53 0.93,5.61 0.68,7.03 -0.71,4.38 -2.77,8.17 -6.67,9.64 z"
   id="path438" />
	<path
   class="st29"
   d="m -2855.47,8846.35 -0.17,3.36 c -1.72,0.26 -5.19,-0.31 -9.01,0.13 l -1.37,0.15 c -0.07,0.57 -0.08,1.14 -0.08,1.54 -0.03,1.65 0.17,3.37 0.24,6.28 0.02,5.82 -0.27,9.24 -0.14,15.34 0.07,2.8 0.2,4.85 0.2,5.37 -0.02,1.2 0.2,1.94 -1.52,2.26 -2.06,0.37 -6.33,0.24 -8.33,0.2 -1.82,-0.03 -3.06,-1.19 -3.1,-2.33 -0.04,-1.14 -0.11,-3.37 -0.25,-5.31 -0.14,-2.11 0.36,-11.23 0.39,-13.05 0.02,-1.08 -0.14,-5.25 -0.3,-9.59 l -1.08,-0.02 c -2.28,-0.09 -5.19,-0.09 -7.81,-0.13 -1.04,-2.7 -0.87,-9.25 0.74,-10.03 5.08,-0.2 8.5,-0.09 10.5,-0.28 1.37,-0.15 5.83,-0.53 7.76,-0.27 3.87,0.41 8.5,-0.26 10.9,-0.39 1.14,-0.09 2.28,0.32 2.66,1.47 0.35,0.98 -0.19,2.68 -0.23,5.3 z"
   id="path440" />
</g>
<g
   id="g454"
   transform="translate(7367.108,322.83798)">
	<path
   class="st29"
   d="m -2967.32,8912.44 c -0.31,4.77 0,9.85 0,10.53 0,2.3 -3.51,2.46 -6.39,2.46 l -2.78,-0.26 c -0.21,-1.73 0.16,-15.09 0.26,-19.33 -0.47,0.84 -0.94,1.78 -1.47,2.78 -0.84,1.62 -4.03,7.59 -4.45,8.64 -0.52,1.26 -2.15,1.83 -3.82,1.83 -1.26,0.05 -2.93,-0.21 -3.51,-1.52 -0.31,-0.68 -3.46,-5.4 -5.5,-8.54 0.05,2.25 0.31,4.29 0.47,5.92 0.26,3.51 0.37,7.44 0.37,7.96 0,3.14 -6.23,2.25 -9.64,2.25 -1.57,0 -1.1,-1.05 -1.15,-2.1 -0.05,-1.05 -0.16,-3.09 -0.31,-4.87 -0.21,-1.94 0.26,-18.12 0.26,-19.8 0,-1.78 -0.89,-5.4 -0.73,-9.59 1.94,-0.26 4.56,-0.37 7.28,-0.37 1.47,-0.16 3.04,-0.52 3.56,0.68 0.73,1.62 3.77,7.23 4.14,8.43 0.47,1.68 2.78,6.23 4.87,10.32 1.78,-3.98 4.24,-9.48 4.98,-11.42 0.42,-1.2 2.72,-7.33 3.51,-8.91 1.73,-1.15 3.82,-0.94 6.71,-1.47 1.47,-0.31 2.62,0.79 2.62,2.09 0,1.73 0.26,9.01 0.37,10.27 0.04,0.76 0.72,8.2 0.35,14.02 z"
   id="path444" />
	<path
   class="st29"
   d="m -2931.28,8925.79 c -1.83,0.47 -7.12,1.1 -8.43,-0.73 -0.68,-2.09 -0.84,-2.99 -1.15,-4.71 -1.47,0.21 -3.25,0.31 -5.4,0.31 l -6.86,0.47 c -0.26,1 -0.58,2.04 -0.84,2.78 -1,2.62 -2.88,2.41 -5.24,2.2 -1.2,-0.1 -3.51,-0.37 -4.82,-0.63 -1.36,-0.21 -2.1,-0.26 -1.41,-2.31 1.57,-5.29 5.13,-15.09 5.55,-16.66 0.42,-1.78 3.88,-10.58 4.61,-12.68 0.52,-1.47 1.1,-3.56 1.36,-4.61 0.31,-1.05 1.68,-2.41 2.83,-2.36 5.29,0.16 10.58,-1 11.16,1.31 0.47,1.89 2.57,9.53 4.14,14.56 1.89,6.08 3.14,9.53 3.3,10.21 0.37,1.41 2.04,8.28 2.46,10.06 0.31,1.33 -0.16,2.48 -1.26,2.79 z m -11.73,-13.67 c -0.47,-2.04 -0.89,-3.67 -1.05,-4.19 -0.21,-1 -1.41,-6.76 -2.41,-11.1 -1,4.35 -2.1,9.64 -3.09,12.78 -0.31,1.15 -0.73,2.25 -1.05,3.35 1.47,-0.05 2.72,-0.11 3.2,-0.16 0.89,-0.1 2.56,-0.36 4.4,-0.68 z"
   id="path446" />
	<path
   class="st29"
   d="m -2896.18,8926 c -1.73,0.21 -3.82,0.52 -5.34,0.58 -1.68,0.05 -3.51,-1.41 -4.19,-2.41 -0.68,-1.05 -2.72,-5.76 -3.61,-7.39 -0.58,-1.05 -1.05,-2.04 -1.57,-2.99 -1.47,0 -2.72,-0.05 -3.67,-0.05 l -1.78,0.05 c 0,4.35 0.05,8.07 0.05,8.75 0,1.78 -2.41,2.15 -3.61,2.62 l -5.24,-0.05 c -1.62,0 -2.72,-1.21 -2.78,-2.25 -0.05,-1 -0.05,-2.93 -0.26,-4.71 -0.26,-1.94 0.79,-10.32 0.79,-12 0,-1.78 -0.73,-15.35 -0.63,-19.54 2.04,-0.42 4.4,-0.73 5.97,-0.79 2.3,-0.1 7.7,-0.26 12.83,-0.26 6.39,0 11.94,1.78 13.67,5.71 1.15,2.62 1.15,4.82 1.26,7.44 0.21,4.5 0.26,7.18 -3.98,11.16 -0.52,0.47 -1.1,0.94 -1.68,1.31 0.84,0.89 1.31,1.83 1.89,2.72 1.62,2.93 3.2,6.71 4.5,9.27 0.57,1.21 -1,2.52 -2.62,2.83 z m -20.28,-20.16 c 1.05,0.05 1.89,0.05 2.2,0.05 1.68,0 7.12,-0.73 7.91,-2.51 1.47,-3.62 1.52,-6.92 -0.31,-8.8 -1.52,-1.52 -5.87,-1.1 -7.54,-1.1 l -1.94,0.05 c -0.16,2.04 -0.47,4.24 -0.42,4.98 z"
   id="path448" />
	<path
   class="st29"
   d="m -2865.96,8923.49 c -3.09,1.26 -6.86,2.51 -12.05,2.51 -4.56,0 -11.1,-1.36 -12.78,-7.75 -0.84,-3.3 -0.84,-5.55 -0.47,-7.75 l 6.08,-0.16 c 2.67,0.26 4.61,0.63 4.61,3.14 0,3.14 0.89,5.13 5.08,5.13 2.57,0 3.67,-1.99 3.67,-3.93 0,-2.46 -2.62,-3.72 -6.81,-6.23 -4.03,-2.04 -8.28,-3.46 -9.48,-5.55 -1.57,-2.67 -1.94,-5.13 -1.94,-7.86 0,-6.6 6.97,-10.58 14.56,-10.58 9.64,0 15.24,4.82 15.61,10 0.1,1.47 0,2.57 -0.16,3.82 l -6.13,0.58 c -2.57,0 -3.46,-1.31 -3.46,-3.35 -0.05,-1.68 -1.47,-4.61 -4.45,-4.61 -2.3,0 -4.56,1.26 -4.56,3.88 0,1.94 1.68,3.82 5.97,5.08 8.59,2.41 10.53,4.77 11.94,8.22 0.89,2.3 0.94,5.13 0.73,6.44 -0.56,4.04 -2.4,7.55 -5.96,8.97 z"
   id="path450" />
	<path
   class="st29"
   d="m -2822.74,8922.44 c 0,2.46 -4.5,2.72 -7.7,2.72 -1.52,0 -2.51,-1.36 -2.62,-2.46 -0.1,-1.05 0,-2.78 -0.21,-4.56 -0.1,-0.89 -0.16,-3.25 -0.1,-5.71 -1.31,0.21 -2.72,0.37 -4.35,0.42 l -6.65,0.58 c 0.05,4.51 0.1,8.43 0.1,9.12 0,2.36 -5.45,2.57 -8.91,2.57 -1.68,0 -2.72,-1.21 -2.78,-2.25 -0.05,-1 -0.1,-2.93 -0.31,-4.71 -0.21,-1.94 0.42,-10.32 0.42,-12 0,-1.78 -1.1,-13.2 -0.89,-17.39 1.94,-0.26 5.81,-0.84 7.49,-0.84 4.4,0 4.09,1.05 4.45,3.67 0.26,1.99 0.16,5.97 0.26,7.12 0,0.37 0.05,2.41 0.05,5.19 2.25,-0.05 4.24,-0.26 5.08,-0.42 1.15,-0.16 3.4,-0.52 5.81,-1.05 -0.42,-3.72 -1.1,-9.69 -1.15,-13.36 0.89,-2.93 4.71,-2.2 7.65,-1.68 1.41,0.26 2.93,0.63 2.93,1.94 0,1.73 0.31,7.6 0.42,8.85 0.05,0.73 -0.16,8.22 0.68,13.99 0.69,4.76 0.33,9.58 0.33,10.26 z"
   id="path452" />
</g>
<g
   id="g468"
   transform="translate(7367.108,322.83798)">
	<path
   class="st29"
   d="m -3034.08,8963.99 c -3.24,-5.34 -2.89,-11.53 -2.83,-16.01 0.06,-2.03 -0.3,-5.97 0.03,-8.64 0.27,-2.29 -0.04,-4.96 0.93,-6.45 0.53,-0.37 2.72,-0.9 4.43,-0.95 2.56,-0.04 4,0.01 6.24,1.25 1.54,1.12 0.72,8.38 0.61,10.19 -0.12,3.2 -0.12,4.43 -0.07,6.03 0.15,2.24 -0.12,4.16 -0.02,6.51 0.68,4.43 3.34,5.03 4.89,5.03 1.17,0 4.06,-1.91 4.17,-3.99 0.12,-2.61 0.13,-5.65 0.13,-7.41 0.01,-2.51 0.28,-4.27 0.08,-7.57 -0.2,-2.88 0.51,-10.19 0.52,-11.36 l 1.17,-0.42 c 2.46,-0.58 5.23,-0.52 7.57,0.13 1.92,0.97 1.15,6.03 1.41,9.98 0.2,3.31 0.4,7.15 0.39,10.35 -0.01,3.09 0.08,7.2 -1.48,11.46 -1.99,5.91 -6.22,8.14 -13.84,8.11 -3.89,-0.02 -10.93,-0.79 -14.33,-6.24 z"
   id="path456" />
	<path
   class="st29"
   d="m -2967.1,8968.17 c -0.01,2.35 -4.01,2.49 -7.05,2.48 -1.33,0.05 -2.61,0.26 -3.41,-1.08 -0.48,-0.96 -3.77,-4.49 -4.67,-6.04 -1.01,-1.71 -6.05,-7.75 -7.86,-9.95 0.1,2.19 0.41,4.27 0.51,5.87 0.2,3.57 0.34,8.91 0.34,9.44 0,1.28 -6.62,0.94 -10.19,0.93 -1.6,-0.01 -1.06,-1.07 -1.11,-2.14 -0.1,-1.07 -0.15,-3.15 -0.36,-4.96 -0.21,-1.97 0.17,-18.45 0.18,-20.16 0.01,-1.81 -0.73,-4.32 -0.56,-8.59 1.13,-1.65 4.38,-1.26 7.63,-1.95 1.76,-0.37 3.63,-0.09 4.16,1.13 0.69,1.66 3.87,8.28 4.5,9.46 0.32,0.54 5.04,7.27 8.17,12.24 l 0.02,-4.64 c 0.01,-1.65 -1.13,-13.39 -1.16,-18.67 1.55,-1.17 4.11,-1.21 7.1,-1.31 1.76,-0.05 2.82,0.65 2.82,1.98 -0.01,1.76 0.24,9.17 0.34,10.46 0.1,0.8 -0.08,8.37 0.64,14.24 0.62,5.39 -0.04,10.56 -0.04,11.26 z"
   id="path458" />
	<path
   class="st29"
   d="m -2962.76,8962.79 c -0.21,-1.97 0.18,-6.99 0.19,-8.69 0,-0.59 0.13,-5.87 -0.03,-8.05 -0.31,-4.27 -0.66,-10.35 -0.54,-13.18 1.98,-0.79 5.5,-0.78 7.52,-0.77 4.21,0.01 4.32,0.6 4.68,3.27 0.26,1.97 0.14,6.51 0.19,7.68 0,1.12 0.31,2.72 0.3,5.76 -0.01,2.56 -0.13,5.65 -0.14,8.59 -0.02,4.91 0.02,9.39 0.02,10.08 0,1.28 -1.77,2.29 -3.8,2.55 -1.81,0.26 -3.47,-0.17 -5.12,-0.18 -1.65,-0.01 -2.88,-1.02 -2.98,-2.09 -0.1,-1.07 -0.03,-3.15 -0.29,-4.97 z"
   id="path460" />
	<path
   class="st29"
   d="m -2917.07,8937.72 -0.12,3.15 c -1.6,0.26 -4.85,-0.23 -8.43,0.24 l -1.28,0.16 c -0.06,0.53 -0.06,1.07 -0.06,1.44 -0.01,1.55 0.2,3.15 0.3,5.87 0.09,5.44 -0.14,8.64 0.06,14.35 0.1,2.61 0.25,4.53 0.25,5.01 0,1.12 0.21,1.81 -1.39,2.13 -1.92,0.37 -5.92,0.3 -7.79,0.29 -1.71,-0.01 -2.88,-1.08 -2.93,-2.14 -0.05,-1.07 -0.15,-3.15 -0.3,-4.96 -0.15,-1.97 0.2,-10.51 0.2,-12.21 0,-1.01 -0.2,-4.91 -0.4,-8.96 h -1.01 c -2.13,-0.06 -4.85,-0.02 -7.31,-0.02 -1,-2.51 -0.93,-8.64 0.57,-9.39 4.75,-0.25 7.95,-0.19 9.82,-0.39 1.28,-0.16 5.44,-0.57 7.26,-0.35 3.63,0.33 7.95,-0.35 10.19,-0.5 1.07,-0.1 2.13,0.27 2.5,1.34 0.36,0.89 -0.12,2.49 -0.13,4.94 z"
   id="path462" />
	<path
   class="st29"
   d="m -2881.6,8969.21 c -0.43,0.96 -1.44,1.33 -2.56,1.27 -2.45,-0.22 -7.09,-0.88 -11.09,-0.57 -1.97,0.15 -6.46,0.46 -7.79,0.29 -2.13,-0.22 -11.31,1.4 -11.31,-0.57 -0.05,-1.07 -0.09,-3.89 -0.25,-5.71 -0.26,-1.97 0.3,-9.76 0.31,-11.47 0,-0.85 -0.25,-4.64 -0.24,-8.11 0,-0.69 -0.26,-1.87 -0.26,-2.61 0,-1.17 0.17,-1.97 0.12,-2.72 -0.26,-1.97 -0.09,-3.89 0.02,-5.01 3.26,-0.47 7.73,-0.29 9.82,-0.5 1.44,-0.1 5.82,-0.57 7.9,-0.4 4,0.39 8.64,-0.29 11.15,-0.44 1.07,-0.1 2.24,0.33 2.66,1.29 0.37,0.96 -0.11,2.08 -0.12,4.59 l -0.12,2.99 c -1.76,0.37 -7.52,-0.03 -11.36,0.33 -1.92,0.21 -5.28,0.2 -8.21,0.24 -0.06,0.96 -0.06,1.81 -0.01,2.29 0.05,0.75 -0.17,1.97 -0.18,4.43 v 0.11 c 1.6,-0.05 2.72,-0.04 3.84,-0.2 3.09,-0.31 4.16,-0.31 8.64,-0.72 2.29,-0.21 2.45,1.13 2.45,2.25 l 0.19,5.65 c -3.31,0.79 -5.65,0.19 -9.44,0.45 -1.33,0.1 -3.15,0.31 -5.55,0.57 0.05,1.65 0.15,3.31 0.2,4.69 2.45,-0.15 4.75,-0.25 6.03,-0.14 2.35,0.12 4.27,-0.15 5.92,-0.14 4,0.01 7.52,0.03 9.23,0.41 l 0.15,2.4 c 0.34,2.44 0.45,4.05 -0.14,5.06 z"
   id="path464" />
	<path
   class="st29"
   d="m -2846.44,8964.31 c -4.88,6.81 -13.73,5.5 -17.73,5.54 l -10.88,0.28 c -1.71,-0.01 -2.77,-1.18 -2.82,-2.25 -0.05,-1.01 -0.1,-2.99 -0.3,-4.8 -0.21,-1.97 0.89,-10.5 0.9,-12.21 0.01,-1.81 -1.5,-13.29 -1.27,-17.55 1.97,-0.26 5.92,-0.67 7.63,-0.77 2.72,-0.2 8.11,-0.19 12.54,-0.17 6.99,0.02 12.36,3.56 13.26,6.07 1.48,3.58 2.12,5.13 2.21,8.86 0.18,6.4 0.48,10.88 -3.54,17 z m -8.75,-14.22 c -0.1,-1.92 -0.25,-4 -0.25,-5.23 -0.09,-4.59 -6.87,-4.45 -8.52,-4.46 l -2.4,-0.06 c 0.05,1.6 0.04,3.04 0.09,3.63 0.05,0.75 0.13,9.87 0.21,16.59 h 0.85 c 2.67,0.01 7.31,0.24 9.02,-2.64 1.46,-3.18 1.15,-4.78 1,-7.83 z"
   id="path466" />
</g>
<g
   id="g480"
   transform="translate(7367.108,322.83798)">
	<rect
   x="-1580.1899"
   y="8868.2598"
   class="st16"
   width="545.91998"
   height="104.49"
   id="rect470" />
	<text
   transform="translate(-1580.1952,8885.7744)"
   id="text478"><tspan
     x="0"
     y="0"
     class="st7 st19"
     style="font-size:24px"
     id="tspan472">We’re East Marsh United,  a community group  </tspan><tspan
     x="0"
     y="38"
     class="st7 st19"
     style="font-size:24px"
     id="tspan474">from the East Marsh of Grimsby, dedicated to </tspan><tspan
     x="0"
     y="76"
     class="st7 st19"
     style="font-size:24px"
     id="tspan476">transforming where we live for the better.</tspan></text>
</g>
<rect
   x="5786.918"
   y="9161.418"
   class="st7"
   width="75.730003"
   height="4.77"
   id="rect482" />
<text
   style="opacity:0.7"
   id="text492"
   x="6429.2129"
   y="9203.8359"><tspan
     x="6429.2129"
     y="9203.8359"
     class="st7 st19"
     style="font-size:20px"
     id="tspan484">news</tspan><tspan
     x="6429.2129"
     y="9253.8359"
     class="st7 st19"
     style="font-size:20px"
     id="tspan486">about</tspan><tspan
     x="6429.2129"
     y="9303.8359"
     class="st7 st19"
     style="font-size:20px"
     id="tspan488">press</tspan><tspan
     x="6429.2129"
     y="9353.8359"
     class="st7 st19"
     style="font-size:20px"
     id="tspan490">events</tspan></text>
<text
   style="opacity:0.7"
   id="text498"
   x="6575.2847"
   y="9250.7939"><tspan
     x="6575.2847"
     y="9250.7939"
     class="st7 st19"
     style="font-size:20px"
     id="tspan494">facebook</tspan><tspan
     x="6575.2847"
     y="9300.7939"
     class="st7 st19"
     style="font-size:20px"
     id="tspan496">twitter</tspan></text>
<text
   class="st19"
   style="font-size:20px;opacity:0.7;fill:#ffffff"
   id="text500"
   x="6575.2847"
   y="9203.8359">email</text>
<g
   id="g506"
   transform="translate(7367.108,322.83798)">
	<rect
   x="-1582.0601"
   y="8999.6602"
   class="st32"
   width="155.2"
   height="39.130001"
   id="rect502" />
	<text
   transform="translate(-1530.9178,9023.9658)"
   class="st7 st17"
   style="font-size:16.1502px"
   id="text504">donate</text>
</g>




<path
   class="st33"
   d="m 4112.158,6668.218 c 78.23,99.69 159.08,204.52 179.32,303.14 9.56,46.58 4.93,89.41 11.37,135.24 7.32,52.13 29.15,107.97 63.59,162.72 8.09,12.85 17.33,26.15 31.06,36.84 19.38,15.09 43.71,22.08 66.24,27.95 120.83,31.48 240.72,56.09 358.35,73.55 39.58,5.88 80.17,11.29 120.74,28.64 35.24,15.07 67.74,38.02 98.83,61.04 76.97,56.97 150.52,117.32 219.7,180.27 18.62,16.94 37.56,34.54 60.25,47.08 34.1,18.84 70.4,23.01 104.53,27.25 127.82,15.86 259.87,43.78 392.79,83.06 78.41,23.17 165.45,50.67 221.73,29.6 27.18,-10.17 43.29,-30.68 64.9,-46.17 51.38,-36.83 188.37,37.55 253.34,30.01 15.07,-1.75 26.26,-7.9 31.61,-20.87 7.94,-19.23 29.6,-19.68 50.79,-14.38 21.2,5.31 41.89,19.25 61.67,33.64 37.21,27.07 74.06,57.5 103,96.42 31.76,42.71 226.86,332.44 249.03,380.63"
   id="path526" />
<rect
   x="3789.5679"
   y="6027.668"
   class="st7"
   width="352.5"
   height="1248.6"
   id="rect528" />
<rect
   x="6801.978"
   y="7226.1177"
   class="st7"
   width="352.5"
   height="1248.6"
   id="rect530" />
<line
   class="st34"
   x1="4800.7578"
   y1="8532.1777"
   x2="5335.0181"
   y2="8532.1777"
   id="line532" />

















































<g
   id="g722"
   transform="translate(4532.2532,318.53939)">
	<path
   class="st7"
   d="m -6048.02,-1953.32 c -0.67,4.41 -3,19.66 -3.42,23.27 -0.21,1.74 -3.18,13.81 -5.5,24.93 -2.69,12.2 -7.08,34.29 -7.43,35.9 -0.63,5.61 -12.7,2.65 -24,2.99 -2.39,0.07 -4.86,-2.12 -5.6,-4.62 -0.61,-2.51 -1.83,-7.53 -3.28,-11.75 -1.6,-4.61 -8.38,-30.5 -9.58,-34.99 -0.58,2.95 -1.15,6.03 -1.59,9.1 -1.76,12.17 -7.73,39.24 -7.95,40.84 -0.89,5.62 -13.74,3.61 -25.17,3.96 -2.39,0.07 -5.15,-3.04 -6.03,-5.54 -0.87,-2.5 -1.96,-7.53 -3.28,-11.75 -1.47,-4.61 -9.18,-26.08 -10.23,-30.18 -0.91,-3.83 -8.02,-27.45 -11.46,-39.99 -1.48,-4.88 -0.28,-4.92 2.89,-5.55 2.78,-0.62 13.69,-0.68 16.34,-1.03 5.04,-0.69 9.81,-1.36 11.33,4.85 1.07,4.63 3.15,11.75 3.64,14.53 0.47,2.38 2.1,7.79 4.34,15.71 1.34,4.75 3.12,10.56 5.02,16.36 1.09,-3.63 2.18,-6.99 2.78,-9.4 0.35,-1.48 1.25,-6.96 2.27,-12.98 0.66,-4.68 2.24,-9.39 2.77,-13.93 0.54,-4.14 1.36,-7.9 2.08,-10.58 2.02,-7.92 10.97,-6.99 16.29,-7.15 4.79,-0.15 7.69,-1.16 9.74,5.03 1.47,4.48 3.31,12.68 4.2,15.45 0.73,2.24 5.94,16.06 8.6,24.5 0.47,-2.01 0.8,-4.28 1.26,-6.69 0.92,-4.69 1.87,-17.36 2.53,-21.91 0.87,-6.55 0.54,-8.54 1.59,-13.49 2.95,-7.94 19.41,-5.38 23.03,-4.56 2.25,0.6 4.49,4.26 3.82,8.67 z"
   id="path718" />
	<path
   class="st7"
   d="m -5957.95,-1871.78 c -0.99,2.43 -3.49,3.43 -6.29,3.39 -6.13,-0.35 -17.75,-1.59 -27.71,-0.49 -4.91,0.55 -16.06,1.68 -19.39,1.39 -5.34,-0.37 -28.09,4.45 -28.24,-0.48 -0.21,-2.66 -0.56,-9.7 -1.1,-14.21 -0.81,-4.9 -0.07,-24.36 -0.2,-28.62 -0.06,-2.13 -1.02,-11.55 -1.28,-20.2 -0.05,-1.73 -0.81,-4.63 -0.86,-6.5 -0.09,-2.93 0.25,-4.93 0.06,-6.79 -0.81,-4.9 -0.56,-9.7 -0.38,-12.5 8.08,-1.44 19.26,-1.38 24.43,-2.07 3.58,-0.38 14.45,-1.9 19.65,-1.66 10,0.63 21.52,-1.45 27.76,-2.04 2.65,-0.35 5.61,0.63 6.75,2.99 1,2.37 -0.11,5.2 0.08,11.45 l -0.04,7.46 c -4.36,1.06 -18.75,0.57 -28.3,1.79 -4.77,0.68 -13.15,0.93 -20.46,1.29 -0.06,2.4 0,4.53 0.17,5.72 0.19,1.86 -0.25,4.93 -0.06,11.05 l 0.01,0.27 c 3.99,-0.25 6.78,-0.34 9.56,-0.82 7.69,-1.03 10.35,-1.11 21.49,-2.52 5.7,-0.71 6.2,2.61 6.29,5.4 l 0.96,14.08 c -8.19,2.24 -14.08,0.96 -23.5,1.91 -3.32,0.37 -7.82,1.04 -13.79,1.88 0.26,4.12 0.65,8.23 0.89,11.69 6.11,-0.58 11.82,-1.02 15.02,-0.85 5.86,0.09 10.63,-0.72 14.75,-0.85 9.98,-0.3 18.75,-0.57 23.04,0.23 l 0.58,5.97 c 1.11,6.09 1.5,10.07 0.11,12.64 z"
   id="path720" />
</g>
<g
   id="g730"
   transform="translate(4532.2532,318.53939)">
	<path
   class="st7"
   d="m -5988.55,-1745.96 c -4.51,1.62 -17.68,4.46 -21.42,0.15 -2.21,-5.12 -2.82,-7.32 -4.02,-11.6 -3.64,0.88 -8.11,1.56 -13.52,2.07 l -17.17,2.82 c -0.42,2.57 -0.97,5.28 -1.45,7.19 -1.89,6.83 -6.69,6.75 -12.67,6.78 -3.06,0.02 -8.93,-0.09 -12.29,-0.44 -3.48,-0.2 -5.34,-0.16 -4.11,-5.47 2.7,-13.7 9.35,-39.22 10.03,-43.28 0.63,-4.59 7.25,-27.57 8.6,-33.02 0.97,-3.82 1.93,-9.23 2.34,-11.93 0.54,-2.71 3.65,-6.47 6.57,-6.61 13.36,-0.86 26.42,-5.02 28.41,0.65 1.64,4.64 8.73,23.4 13.88,35.7 6.19,14.86 10.18,23.27 10.74,24.95 1.26,3.48 7.11,20.36 8.59,24.75 1.1,3.22 0.18,6.23 -2.51,7.29 z m -32.8,-31.66 c -1.67,-5.03 -3.11,-9.02 -3.63,-10.31 -0.76,-2.46 -5.17,-16.69 -8.7,-27.4 -1.48,11.19 -2.99,24.77 -4.75,32.93 -0.52,2.98 -1.31,5.85 -1.84,8.69 3.68,-0.48 6.84,-0.91 8.01,-1.15 2.2,-0.47 6.36,-1.53 10.91,-2.76 z"
   id="path724" />
	<path
   class="st7"
   d="m -5900.1,-1753.76 c -4.3,0.94 -9.51,2.23 -13.32,2.72 -4.21,0.53 -9.18,-2.73 -11.13,-5.08 -1.96,-2.48 -8.23,-13.87 -10.86,-17.75 -1.7,-2.5 -3.12,-4.9 -4.67,-7.15 -3.69,0.35 -6.87,0.51 -9.25,0.74 l -4.47,0.55 c 1.03,10.95 2.05,20.31 2.21,22.02 0.42,4.49 -5.56,5.98 -8.48,7.45 l -13.21,1.11 c -4.09,0.39 -7.15,-2.39 -7.53,-5.01 -0.37,-2.49 -0.83,-7.38 -1.78,-11.81 -1.12,-4.82 -0.47,-26.18 -0.87,-30.4 -0.42,-4.49 -5.49,-38.48 -6.22,-49.07 5.05,-1.54 10.91,-2.89 14.85,-3.4 5.78,-0.81 19.33,-2.49 32.26,-3.71 16.1,-1.52 30.51,1.65 35.79,11.14 3.52,6.32 4.05,11.87 4.93,18.44 1.6,11.3 2.36,18.01 -7.38,29.05 -1.21,1.31 -2.55,2.64 -3.91,3.7 2.32,2.04 3.73,4.31 5.4,6.41 4.79,7 9.64,16.13 13.55,22.28 1.75,2.92 -1.9,6.59 -5.91,7.77 z m -55.85,-45.99 c 2.65,-0.12 4.76,-0.32 5.55,-0.39 4.22,-0.4 17.77,-3.54 19.33,-8.21 2.84,-9.45 2.19,-17.78 -2.88,-22.09 -4.19,-3.47 -15.04,-1.38 -19.26,-0.98 l -4.87,0.59 c 0.09,5.18 -0.18,10.8 0.12,12.63 z"
   id="path726" />
	<path
   class="st7"
   d="m -5804.75,-1767.4 c -0.83,2.47 -3.25,3.63 -6.03,3.76 -6.12,0.04 -17.75,-0.46 -27.57,1.27 -4.84,0.86 -15.85,2.69 -19.19,2.61 -5.33,-0.03 -27.64,6.2 -28.1,1.32 -0.38,-2.63 -1.17,-9.61 -1.99,-14.06 -1.12,-4.82 -1.62,-24.21 -2.01,-28.43 -0.2,-2.11 -1.74,-11.42 -2.55,-19.99 -0.16,-1.72 -1.1,-4.56 -1.27,-6.4 -0.27,-2.9 -0.06,-4.92 -0.37,-6.75 -1.12,-4.82 -1.17,-9.61 -1.17,-12.4 7.94,-1.95 19.06,-2.59 24.15,-3.61 3.54,-0.6 14.24,-2.81 19.43,-2.9 9.98,-0.01 21.3,-2.81 27.46,-3.79 2.61,-0.51 5.62,0.27 6.9,2.55 1.15,2.29 0.22,5.17 0.8,11.37 l 0.43,7.41 c -4.27,1.33 -18.6,1.75 -28.02,3.57 -4.7,0.98 -13.01,1.76 -20.26,2.57 0.09,2.39 0.29,4.5 0.53,5.67 0.31,1.83 0.06,4.92 0.64,10.99 l 0.02,0.26 c 3.95,-0.5 6.72,-0.77 9.45,-1.42 7.58,-1.51 10.22,-1.76 21.2,-3.86 5.62,-1.06 6.33,2.2 6.59,4.97 l 1.85,13.94 c -7.99,2.75 -13.94,1.85 -23.24,3.39 -3.27,0.57 -7.71,1.53 -13.58,2.74 0.52,4.08 1.17,8.14 1.62,11.56 6.03,-0.97 11.68,-1.77 14.87,-1.8 5.83,-0.28 10.52,-1.39 14.61,-1.78 9.9,-0.93 18.6,-1.75 22.91,-1.23 l 0.96,5.9 c 1.51,5.99 2.14,9.92 0.93,12.57 z"
   id="path728" />
</g>
<g
   id="g740"
   transform="translate(4532.2532,318.53939)">
	<path
   class="st7"
   d="m -6239.33,-1578.56 c -1.91,3.18 -5.63,4.05 -9.53,3.37 -8.5,-1.81 -24.48,-6.08 -38.64,-6.7 -6.98,-0.3 -22.82,-1.13 -27.42,-2.27 -7.38,-1.68 -40.25,0.13 -39.39,-6.79 0.28,-3.76 1.32,-13.69 1.55,-20.11 -0.08,-7.03 5.18,-34.08 5.92,-40.06 0.37,-2.99 1.08,-16.38 2.59,-28.52 0.3,-2.43 -0.12,-6.66 0.2,-9.27 0.51,-4.11 1.42,-6.85 1.56,-9.48 -0.08,-7.03 1.32,-13.69 2.18,-17.57 11.61,-0.27 27.24,2.24 34.62,2.4 5.09,0.25 20.63,0.47 27.84,1.94 13.85,3.05 30.41,2.64 39.27,3.17 3.78,0.09 7.71,2.1 8.79,5.65 0.89,3.53 -1.28,7.24 -2.37,16.03 l -1.67,10.42 c -6.33,0.54 -26.35,-3.27 -39.97,-3.64 -6.82,-0.09 -18.59,-1.55 -28.9,-2.64 -0.6,3.34 -0.98,6.33 -1,8.04 -0.14,2.64 -1.42,6.85 -2.49,15.44 l -0.05,0.37 c 5.63,0.51 9.55,1 13.55,0.92 10.98,0.22 14.72,0.69 30.6,1.14 8.13,0.25 8.11,4.99 7.62,8.92 l -1.71,19.9 c -11.94,1.36 -19.9,-1.71 -33.29,-2.43 -4.72,-0.21 -11.17,-0.25 -19.69,-0.36 -0.53,5.82 -0.88,11.66 -1.29,16.54 8.67,0.51 16.75,1.13 21.19,2.06 8.18,1.39 15.02,1.3 20.81,2.02 14.02,1.74 26.35,3.27 32.17,5.32 l -0.48,8.48 c 0.24,8.76 -0.08,14.41 -2.57,17.71 z"
   id="path732" />
	<path
   class="st7"
   d="m -6116.15,-1557.38 c -6.75,0.87 -25.9,0.77 -29.76,-6.35 -1.5,-7.78 -1.67,-11.02 -2.02,-17.33 -5.33,0.1 -11.73,-0.32 -19.39,-1.27 l -24.69,-1.36 c -1.38,3.43 -2.96,7.03 -4.22,9.53 -4.71,8.9 -11.35,7.32 -19.66,5.53 -4.25,-0.91 -12.36,-2.86 -16.92,-4.38 -4.77,-1.35 -7.36,-1.86 -4.02,-8.85 7.95,-18.18 25,-51.55 27.19,-56.97 2.28,-6.17 18.52,-36.03 22.06,-43.18 2.52,-5 5.5,-12.22 6.9,-15.84 1.59,-3.6 7.05,-7.85 11.14,-7.16 18.81,2.9 38.19,1.14 39.23,9.62 0.85,6.94 4.93,35.15 8.31,53.79 4.04,22.51 6.99,35.41 7.25,37.9 0.68,5.21 3.62,30.43 4.33,36.97 0.52,4.81 -1.67,8.71 -5.73,9.35 z m -35.81,-53.98 c -0.78,-7.5 -1.55,-13.48 -1.88,-15.41 -0.31,-3.64 -2.05,-24.73 -3.68,-40.69 -5.48,15.07 -11.75,33.46 -16.69,44.23 -1.63,3.97 -3.61,7.71 -5.22,11.5 5.26,0.46 9.76,0.83 11.47,0.86 3.23,0.01 9.32,-0.18 16,-0.49 z"
   id="path734" />
	<path
   class="st7"
   d="m -6015.52,-1553.24 c -11.58,3.12 -25.6,5.93 -44.1,3.63 -16.26,-2.02 -39.02,-9.78 -42.17,-33.32 -1.53,-12.15 -0.53,-20.18 1.75,-27.87 l 21.75,2.13 c 9.42,2.12 16.17,4.29 15.05,13.26 -1.39,11.21 0.9,18.71 15.85,20.57 9.16,1.14 13.96,-5.48 14.82,-12.39 1.09,-8.78 -7.7,-14.43 -21.53,-25.26 -13.49,-9.08 -28,-16 -31.37,-24.01 -4.42,-10.23 -4.64,-19.17 -3.43,-28.89 2.92,-23.55 29.54,-34.66 56.64,-31.3 34.39,4.27 52.25,23.95 51.26,42.61 -0.28,5.28 -1.14,9.16 -2.25,13.57 l -22.12,-0.66 c -9.16,-1.14 -11.75,-6.2 -10.85,-13.49 0.56,-6 -3.19,-17.1 -13.84,-18.42 -8.22,-1.02 -16.82,2.47 -17.98,11.81 -0.86,6.91 4.29,14.39 19.05,20.77 29.58,12.4 35.45,21.67 38.97,34.63 2.16,8.62 1.09,18.73 -0.24,23.31 -3.83,14.15 -11.92,25.86 -25.26,29.32 z"
   id="path736" />
	<path
   class="st7"
   d="m -5869.49,-1644.22 -1.74,10.98 c -5.72,0.24 -16.91,-2.86 -29.64,-2.73 h -4.55 c -0.42,1.85 -0.65,3.71 -0.81,5.02 -0.67,5.42 -0.62,11.12 -1.43,20.7 -1.99,19.11 -4.13,30.23 -5.87,50.32 -0.76,9.2 -1.04,16 -1.25,17.68 -0.49,3.92 -0.04,6.45 -5.79,6.87 -6.89,0.47 -20.88,-1.45 -27.42,-2.27 -5.98,-0.74 -9.63,-4.99 -9.35,-8.75 0.28,-3.76 0.81,-11.1 1.04,-17.52 0.3,-6.98 5.13,-36.75 5.88,-42.73 0.44,-3.55 1.39,-17.29 2.4,-31.58 l -3.55,-0.44 c -7.45,-1.12 -17.01,-2.11 -25.6,-3.18 -2.46,-9.22 0.4,-30.69 5.95,-32.66 16.75,1.13 27.94,2.71 34.57,2.78 4.56,0 19.32,0.31 25.58,1.85 12.57,2.7 28.01,2.15 35.93,2.56 3.78,0.09 7.36,1.86 8.2,5.76 0.9,3.35 -1.48,8.75 -2.55,17.34 z"
   id="path738" />
</g>
<g
   id="g752"
   transform="translate(4532.2532,318.53939)">
	<path
   class="st7"
   d="m -6372.83,-1419.61 c -0.97,14.76 0,30.49 0,32.6 0,7.14 -10.87,7.62 -19.79,7.62 l -8.6,-0.81 c -0.65,-5.35 0.49,-46.71 0.81,-59.85 -1.46,2.6 -2.92,5.51 -4.54,8.6 -2.6,5.03 -12.49,23.52 -13.79,26.76 -1.62,3.89 -6.65,5.68 -11.84,5.68 -3.89,0.16 -9.08,-0.65 -10.87,-4.7 -0.97,-2.11 -10.71,-16.71 -17.03,-26.44 0.16,6.97 0.97,13.3 1.46,18.33 0.81,10.87 1.14,23.03 1.14,24.65 0,9.73 -19.3,6.97 -29.84,6.97 -4.87,0 -3.41,-3.24 -3.57,-6.49 -0.16,-3.24 -0.49,-9.57 -0.97,-15.08 -0.65,-6 0.81,-56.12 0.81,-61.31 0,-5.51 -2.76,-16.71 -2.27,-29.68 6,-0.81 14.11,-1.14 22.54,-1.14 4.54,-0.49 9.41,-1.62 11.03,2.11 2.27,5.03 11.68,22.38 12.81,26.11 1.46,5.19 8.6,19.3 15.08,31.95 5.51,-12.33 13.14,-29.36 15.41,-35.36 1.3,-3.73 8.43,-22.71 10.87,-27.57 5.35,-3.57 11.84,-2.92 20.76,-4.54 4.54,-0.97 8.11,2.43 8.11,6.49 0,5.35 0.81,27.9 1.14,31.79 0.17,2.28 2.28,25.31 1.14,43.31 z"
   id="path742" />
	<path
   class="st7"
   d="m -6261.24,-1378.25 c -5.68,1.46 -22.06,3.41 -26.11,-2.27 -2.11,-6.49 -2.6,-9.24 -3.57,-14.6 -4.54,0.65 -10.06,0.97 -16.71,0.97 l -21.25,1.46 c -0.81,3.08 -1.78,6.33 -2.6,8.6 -3.08,8.11 -8.92,7.46 -16.22,6.81 -3.73,-0.32 -10.87,-1.14 -14.92,-1.95 -4.22,-0.65 -6.49,-0.81 -4.38,-7.14 4.87,-16.38 15.9,-46.71 17.19,-51.58 1.3,-5.51 12,-32.76 14.27,-39.25 1.62,-4.54 3.41,-11.03 4.22,-14.27 0.97,-3.24 5.19,-7.46 8.76,-7.3 16.38,0.49 32.76,-3.08 34.55,4.05 1.46,5.84 7.95,29.52 12.81,45.09 5.84,18.81 9.73,29.52 10.22,31.63 1.14,4.38 6.33,25.63 7.62,31.14 0.99,4.07 -0.47,7.64 -3.88,8.61 z m -36.33,-42.33 c -1.46,-6.33 -2.76,-11.35 -3.24,-12.98 -0.65,-3.08 -4.38,-20.92 -7.46,-34.39 -3.08,13.46 -6.49,29.84 -9.57,39.58 -0.97,3.57 -2.27,6.97 -3.24,10.38 4.54,-0.16 8.43,-0.32 9.89,-0.49 2.75,-0.32 7.94,-1.13 13.62,-2.1 z"
   id="path744" />
	<path
   class="st7"
   d="m -6152.57,-1377.6 c -5.35,0.65 -11.84,1.62 -16.54,1.78 -5.19,0.16 -10.87,-4.38 -12.98,-7.46 -2.11,-3.24 -8.43,-17.84 -11.19,-22.87 -1.78,-3.24 -3.24,-6.33 -4.87,-9.25 -4.54,0 -8.43,-0.16 -11.35,-0.16 l -5.51,0.16 c 0,13.46 0.16,24.98 0.16,27.09 0,5.51 -7.46,6.65 -11.19,8.11 l -16.22,-0.16 c -5.03,0 -8.43,-3.73 -8.6,-6.97 -0.16,-3.08 -0.16,-9.08 -0.81,-14.6 -0.81,-6 2.43,-31.95 2.43,-37.14 0,-5.51 -2.27,-47.52 -1.95,-60.5 6.33,-1.3 13.62,-2.27 18.49,-2.43 7.14,-0.32 23.84,-0.81 39.74,-0.81 19.79,0 36.98,5.51 42.33,17.68 3.57,8.11 3.57,14.92 3.89,23.03 0.65,13.95 0.81,22.22 -12.33,34.55 -1.62,1.46 -3.41,2.92 -5.19,4.05 2.6,2.76 4.06,5.68 5.84,8.43 5.03,9.08 9.89,20.76 13.95,28.71 1.79,3.73 -3.07,7.79 -8.1,8.76 z m -62.77,-62.44 c 3.24,0.16 5.84,0.16 6.81,0.16 5.19,0 22.06,-2.27 24.49,-7.79 4.54,-11.19 4.7,-21.41 -0.97,-27.25 -4.7,-4.7 -18.17,-3.41 -23.36,-3.41 l -6,0.16 c -0.49,6.33 -1.46,13.14 -1.3,15.41 z"
   id="path746" />
	<path
   class="st7"
   d="m -6058.99,-1385.38 c -9.57,3.89 -21.25,7.79 -37.3,7.79 -14.11,0 -34.38,-4.22 -39.58,-24 -2.59,-10.22 -2.59,-17.19 -1.46,-24 l 18.81,-0.49 c 8.27,0.81 14.27,1.95 14.27,9.73 0,9.73 2.76,15.9 15.73,15.9 7.95,0 11.35,-6.16 11.35,-12.16 0,-7.62 -8.11,-11.52 -21.08,-19.3 -12.49,-6.33 -25.63,-10.7 -29.36,-17.19 -4.87,-8.27 -6,-15.9 -6,-24.33 0,-20.44 21.57,-32.76 45.09,-32.76 29.84,0 47.2,14.92 48.33,30.98 0.32,4.54 0,7.95 -0.49,11.84 l -18.98,1.78 c -7.95,0 -10.7,-4.05 -10.7,-10.38 -0.16,-5.19 -4.54,-14.27 -13.79,-14.27 -7.14,0 -14.11,3.89 -14.11,12 0,6 5.19,11.84 18.49,15.73 26.6,7.46 32.6,14.76 36.98,25.46 2.76,7.14 2.92,15.9 2.27,19.95 -1.76,12.47 -7.44,23.34 -18.47,27.72 z"
   id="path748" />
	<path
   class="st7"
   d="m -5925.18,-1388.63 c 0,7.62 -13.95,8.43 -23.84,8.43 -4.7,0 -7.79,-4.22 -8.11,-7.62 -0.32,-3.24 0,-8.6 -0.65,-14.11 -0.32,-2.76 -0.49,-10.06 -0.32,-17.68 -4.05,0.65 -8.43,1.14 -13.46,1.3 l -20.6,1.78 c 0.16,13.95 0.32,26.11 0.32,28.22 0,7.3 -16.87,7.95 -27.57,7.95 -5.19,0 -8.43,-3.73 -8.6,-6.97 -0.16,-3.08 -0.32,-9.08 -0.97,-14.6 -0.65,-6 1.3,-31.95 1.3,-37.14 0,-5.51 -3.41,-40.87 -2.76,-53.85 6,-0.81 18,-2.59 23.19,-2.59 13.62,0 12.65,3.24 13.79,11.35 0.81,6.16 0.49,18.49 0.81,22.06 0,1.14 0.16,7.46 0.16,16.06 6.97,-0.16 13.14,-0.81 15.73,-1.3 3.57,-0.49 10.54,-1.62 18,-3.24 -1.3,-11.52 -3.41,-30.01 -3.57,-41.36 2.76,-9.08 14.6,-6.81 23.68,-5.19 4.38,0.81 9.08,1.95 9.08,6 0,5.35 0.97,23.52 1.3,27.41 0.16,2.27 -0.49,25.46 2.11,43.31 2.11,14.75 0.98,29.67 0.98,31.78 z"
   id="path750" />
</g>
<g
   id="g766"
   transform="translate(4532.2532,318.53939)">
	<path
   class="st7"
   d="m -6516.73,-1190.95 c -11.97,-16.78 -12.38,-37.21 -13.27,-51.96 -0.31,-6.68 -2.47,-19.58 -2.05,-28.43 0.33,-7.61 -1.35,-16.31 1.45,-21.45 1.67,-1.36 8.73,-3.63 14.34,-4.21 8.41,-0.78 13.16,-0.95 20.82,2.56 5.35,3.32 4.44,27.37 4.52,33.36 0.41,10.55 0.7,14.59 1.25,19.84 1.06,7.33 0.64,13.71 1.54,21.41 3.33,14.4 12.24,15.7 17.33,15.33 3.86,-0.28 12.88,-7.28 12.74,-14.15 -0.27,-8.62 -0.99,-18.63 -1.41,-24.42 -0.59,-8.25 -0.13,-14.1 -1.62,-24.93 -1.38,-9.43 -0.84,-33.63 -1.11,-37.49 l 3.76,-1.68 c 7.93,-2.51 17.07,-2.99 24.94,-1.44 6.54,2.7 5.29,19.55 7.1,32.47 1.49,10.83 3.1,23.41 3.86,33.94 0.73,10.18 2.06,23.66 -2.02,38.07 -5.09,19.95 -18.42,28.31 -43.51,30.12 -12.8,0.94 -36.14,0.15 -48.66,-16.94 z"
   id="path754" />
	<path
   class="st7"
   d="m -6295.4,-1193.84 c 0.56,7.72 -12.57,9.2 -22.57,9.92 -4.37,0.49 -8.54,1.5 -11.48,-2.7 -1.81,-3.04 -13.52,-13.84 -16.87,-18.72 -3.74,-5.37 -21.84,-24 -28.32,-30.77 0.87,7.17 2.42,13.94 3.15,19.18 1.55,11.71 3.34,29.22 3.47,30.97 0.3,4.21 -21.53,4.73 -33.29,5.57 -5.26,0.38 -3.76,-3.26 -4.19,-6.75 -0.6,-3.48 -1.27,-10.31 -2.4,-16.23 -1.17,-6.44 -4.02,-60.74 -4.43,-66.35 -0.43,-5.97 -3.48,-14.04 -3.97,-28.11 3.29,-5.71 14.09,-5.25 24.62,-8.3 5.7,-1.65 11.91,-1.21 13.95,2.7 2.67,5.28 14.77,26.28 17.15,29.98 1.18,1.68 18.39,22.66 29.92,38.24 l -1.1,-15.27 c -0.39,-5.44 -7.03,-43.77 -8.46,-61.12 4.81,-4.23 13.22,-5.01 23.02,-6.07 5.78,-0.59 9.45,1.44 9.77,5.82 0.42,5.79 3.05,30.12 3.71,34.3 0.54,2.61 1.81,27.56 5.66,46.69 3.37,17.57 2.49,34.74 2.66,37.02 z"
   id="path756" />
	<path
   class="st7"
   d="m -6282.47,-1212.59 c -1.17,-6.44 -1.13,-23.02 -1.53,-28.64 -0.14,-1.93 -1.04,-19.33 -2.08,-26.48 -2.06,-13.96 -4.73,-33.88 -5.05,-43.2 6.3,-3.1 17.88,-3.93 24.55,-4.41 13.86,-1 14.35,0.91 16.21,9.59 1.35,6.43 2.07,21.37 2.52,25.22 0.27,3.69 1.7,8.87 2.42,18.88 0.61,8.42 0.99,18.63 1.69,28.28 1.16,16.14 2.4,30.87 2.56,33.15 0.3,4.21 -5.25,7.96 -11.85,9.32 -5.9,1.31 -11.44,0.3 -16.88,0.69 -5.44,0.39 -9.72,-2.65 -10.32,-6.14 -0.61,-3.5 -0.93,-10.35 -2.24,-16.26 z"
   id="path758" />
	<path
   class="st7"
   d="m -6138.42,-1306.4 0.4,10.38 c -5.2,1.26 -16.02,0.45 -27.66,2.87 l -4.17,0.83 c -0.05,1.77 0.08,3.52 0.17,4.75 0.37,5.09 1.45,10.3 2.44,19.23 1.64,17.87 1.7,28.45 3.75,47.18 0.97,8.57 1.95,14.85 2.07,16.43 0.27,3.68 1.13,5.92 -4.06,7.35 -6.23,1.68 -19.4,2.46 -25.54,2.9 -5.62,0.4 -9.73,-2.83 -10.16,-6.32 -0.43,-3.5 -1.27,-10.31 -2.23,-16.24 -0.99,-6.45 -1.96,-34.61 -2.37,-40.22 -0.24,-3.33 -1.87,-16.09 -3.53,-29.38 l -3.33,0.24 c -7.03,0.33 -15.97,1.15 -24.04,1.73 -3.93,-8.01 -5.21,-28.2 -0.47,-31.01 15.55,-2 26.09,-2.59 32.19,-3.73 4.17,-0.83 17.76,-3.22 23.78,-2.95 12.01,0.19 26.06,-3.11 33.39,-4.17 3.48,-0.6 7.08,0.37 8.56,3.79 1.42,2.89 0.22,8.27 0.81,16.34 z"
   id="path760" />
	<path
   class="st7"
   d="m -6013.95,-1211.65 c -1.18,3.26 -4.42,4.73 -8.12,4.82 -8.12,-0.12 -23.54,-1.13 -36.62,0.87 -6.45,0.99 -21.12,3.11 -25.54,2.9 -7.07,-0.2 -36.86,7.42 -37.33,0.93 -0.43,-3.5 -1.27,-12.78 -2.23,-18.71 -1.35,-6.43 -1.44,-32.17 -1.84,-37.79 -0.2,-2.81 -1.98,-15.2 -2.8,-26.61 -0.16,-2.28 -1.32,-6.08 -1.5,-8.54 -0.28,-3.86 0.06,-6.53 -0.29,-8.97 -1.35,-6.43 -1.27,-12.78 -1.19,-16.49 10.59,-2.35 25.37,-2.89 32.16,-4.08 4.71,-0.69 18.99,-3.31 25.87,-3.28 13.25,0.28 28.35,-3.1 36.56,-4.22 3.48,-0.6 7.45,0.52 9.08,3.58 1.46,3.07 0.14,6.87 0.74,15.12 l 0.36,9.85 c -5.7,1.65 -24.74,1.78 -37.29,3.92 -6.27,1.16 -17.32,1.95 -26.96,2.82 0.05,3.17 0.25,5.98 0.54,7.55 0.35,2.44 -0.06,6.53 0.52,14.6 l 0.03,0.35 c 5.25,-0.55 8.94,-0.82 12.58,-1.61 10.1,-1.79 13.61,-2.04 28.25,-4.51 7.49,-1.25 8.34,3.1 8.6,6.79 l 2.04,18.55 c -10.69,3.42 -18.55,2.04 -30.94,3.82 -4.36,0.67 -10.28,1.8 -18.11,3.25 0.57,5.43 1.31,10.84 1.81,15.39 8.03,-1.11 15.55,-2 19.79,-1.96 7.75,-0.21 14,-1.54 19.44,-1.93 13.16,-0.95 24.74,-1.78 30.45,-0.96 l 1.1,7.86 c 1.8,7.98 2.53,13.22 0.84,16.69 z"
   id="path762" />
	<path
   class="st7"
   d="m -5899.51,-1236.48 c -14.35,23.61 -43.78,21.5 -56.93,22.62 l -35.72,3.63 c -5.62,0.4 -9.4,-3.2 -9.83,-6.7 -0.42,-3.32 -1.06,-9.8 -2.19,-15.72 -1.17,-6.44 0.32,-34.77 -0.09,-40.39 -0.43,-5.97 -8.24,-43.33 -8.55,-57.41 6.43,-1.35 19.31,-3.68 24.9,-4.44 8.9,-1.35 26.62,-2.62 41.19,-3.67 22.99,-1.66 41.54,8.65 45.12,16.68 5.76,11.4 8.23,16.34 9.47,28.6 2.22,21.01 4.34,35.67 -7.37,56.8 z m -32.31,-44.59 c -0.81,-6.29 -1.83,-13.1 -2.12,-17.13 -1.44,-15.07 -23.69,-12.93 -29.12,-12.54 l -7.91,0.39 c 0.56,5.25 0.9,9.99 1.21,11.91 0.35,2.44 2.87,32.42 4.81,54.51 l 2.81,-0.2 c 8.77,-0.63 24.09,-1.03 29.02,-10.91 3.97,-10.88 2.54,-16.06 1.3,-26.03 z"
   id="path764" />
</g>






<g
   id="g866"
   transform="translate(4532.2532,318.53939)">
	<defs
   id="defs853">
		<rect
   id="SVGID_3_"
   x="-7056.29"
   y="-2285.0601"
   width="2659.9199"
   height="1185.87" />
	</defs>
	<clipPath
   id="SVGID_4_">
		<use
   xlink:href="#SVGID_3_"
   style="overflow:visible"
   id="use855"
   x="0"
   y="0"
   width="100%"
   height="100%" />
	</clipPath>
	<path
   class="st43"
   d="m -5980.28,-2343.62 c -7,111.33 26.21,224.77 92.15,314.74 20.08,27.4 44.08,53.4 75.26,66.87 103.78,44.83 229.02,-65.89 331,-17.12 39.62,18.95 65.47,58.74 80.86,99.87 15.39,41.13 22.3,84.94 35.86,126.71 24.25,74.68 70.18,142.18 130.75,192.15 54.51,44.97 50.44,133.9 46.99,204.48 -3.01,61.74 -30.33,119.93 -37.05,181.37 -3,27.42 -1.85,55.11 0.03,82.63 3.36,49.11 9.7,99.96 35.85,141.66 16.17,25.79 39.12,46.66 63.44,64.95 21.77,16.37 45.28,31.13 71.46,38.65 23.7,6.81 48.7,7.45 72.88,12.28 26.87,5.37 52.67,15.99 75.54,31.08"
   clip-path="url(#SVGID_4_)"
   id="path858" />
	<path
   class="st44"
   d="m -5943.26,-2307.37 c -23.16,83.74 24.48,169.27 72.3,241.8 10.8,16.39 22.02,33.03 37.7,44.84 16.65,12.55 37.32,18.79 57.98,21.57 103.26,13.9 214.22,-51.72 308.25,-6.83 33.02,15.77 58.78,43.52 80.59,72.91 7.38,9.95 14.47,20.26 19.17,31.72 0,0 16.4,13.32 33.9,104.01 0,0 7.28,74.78 77.62,171.84 0,0 135.58,157.52 122.85,264.12 -12.73,106.6 -98.65,82.74 -46.14,272.07 52.51,189.34 327.76,249.8 327.76,249.8"
   clip-path="url(#SVGID_4_)"
   id="path860" />
	<path
   class="st45"
   d="m -5912.63,-2296.63 c 10.27,45.72 23.74,90.71 40.28,134.55 9.95,26.38 21.51,53.08 41.63,72.83 36.97,36.29 94.63,41.35 145.98,34.53 51.35,-6.82 101.75,-23.33 153.55,-22.18 90.33,2.02 176.46,63.54 207.66,148.34 21.19,57.58 19.03,123.57 50.65,176.15 15.03,25 36.8,45.25 53.43,69.22 19.49,28.09 31.46,60.58 47.45,90.8 38.88,73.51 177.35,220.57 100.98,267.24 0,0 -193.05,159.11 23.34,345.79 86.98,77.86 333.59,161.23 333.59,161.23"
   clip-path="url(#SVGID_4_)"
   id="path862" />
	<path
   class="st46"
   d="m -5888.89,-2329.08 c 10.27,45.72 23.74,90.71 40.28,134.55 9.95,26.38 21.51,53.08 41.63,72.83 36.97,36.29 94.63,41.35 145.98,34.53 51.35,-6.82 101.75,-23.33 153.55,-22.18 90.33,2.02 176.46,63.54 207.66,148.34 21.19,57.58 19.03,123.57 50.65,176.15 15.03,25 36.8,45.25 53.43,69.22 19.49,28.09 31.46,60.58 47.45,90.8 38.88,73.51 205.06,265.23 128.69,311.9 0,0 -220.76,114.45 -4.37,301.14 70.01,50.91 361.49,145.95 361.49,145.95"
   clip-path="url(#SVGID_4_)"
   id="path864" />
</g>





<polyline
   class="st29"
   points="2462.9,-1391.68 2593.97,-1829.95 2319.63,-2060.36 2036.27,-2042.89 1762.09,-1397.54   2038.62,-1342.29 2154.4,-1131.18 "
   id="polyline908"
   transform="translate(7367.108,322.83798)" />
<g
   id="g918"
   transform="translate(7367.108,322.83798)">
	<path
   class="st7"
   d="m 2094.52,-1757.76 c -1.39,2.98 -4.58,4.1 -8.08,3.88 -7.67,-0.8 -22.17,-3.04 -34.71,-2.25 -6.19,0.4 -20.24,1.17 -24.4,0.6 -6.67,-0.78 -35.48,3.92 -35.38,-2.26 -0.11,-3.34 -0.13,-12.2 -0.54,-17.89 -0.73,-6.19 1.34,-30.55 1.43,-35.9 0.04,-2.67 -0.59,-14.55 -0.41,-25.4 0.04,-2.17 -0.74,-5.86 -0.7,-8.2 0.06,-3.67 0.6,-6.17 0.48,-8.51 -0.73,-6.19 -0.13,-12.2 0.26,-15.7 10.21,-1.33 24.24,-0.6 30.76,-1.16 4.52,-0.26 18.24,-1.53 24.74,-0.92 12.51,1.38 27.08,-0.55 34.93,-0.92 3.35,-0.28 7,1.12 8.28,4.15 1.12,3.03 -0.44,6.51 -0.57,14.36 l -0.49,9.35 c -5.53,1.08 -23.55,-0.39 -35.6,0.58 -6.02,0.57 -16.55,0.39 -25.74,0.41 -0.22,3 -0.26,5.68 -0.12,7.18 0.13,2.34 -0.6,6.17 -0.73,13.85 l -0.01,0.33 c 5.01,-0.08 8.52,-0.03 12.04,-0.47 9.7,-0.84 13.04,-0.79 27.1,-1.89 7.19,-0.55 7.62,3.64 7.57,7.14 l 0.37,17.72 c -10.4,2.33 -17.72,0.37 -29.59,1.01 -4.18,0.26 -9.87,0.84 -17.4,1.55 0.08,5.18 0.33,10.36 0.42,14.71 7.69,-0.37 14.88,-0.59 18.88,-0.19 7.34,0.46 13.37,-0.28 18.55,-0.19 12.53,0.21 23.55,0.39 28.88,1.65 l 0.38,7.52 c 1.04,7.7 1.29,12.72 -0.6,15.86 z"
   id="path910" />
	<path
   class="st7"
   d="m 2205.17,-1750.74 c -5.87,1.41 -22.77,3.13 -26.85,-2.79 -2.06,-6.72 -2.51,-9.57 -3.42,-15.09 -4.69,0.59 -10.37,0.83 -17.22,0.72 l -21.91,1.14 c -0.89,3.16 -1.95,6.48 -2.82,8.81 -3.31,8.3 -9.31,7.53 -16.82,6.74 -3.84,-0.4 -11.17,-1.36 -15.33,-2.26 -4.33,-0.74 -6.67,-0.95 -4.39,-7.42 5.29,-16.79 17.17,-47.83 18.59,-52.82 1.43,-5.66 12.92,-33.53 15.37,-40.18 1.75,-4.65 3.7,-11.3 4.59,-14.63 1.06,-3.32 5.47,-7.59 9.14,-7.37 16.86,0.78 33.79,-2.61 35.51,4.77 1.4,6.04 7.68,30.54 12.42,46.65 5.69,19.48 9.52,30.57 9.98,32.75 1.09,4.53 6.07,26.5 7.32,32.2 0.93,4.19 -0.63,7.84 -4.16,8.78 z m -36.68,-44.21 c -1.4,-6.54 -2.64,-11.74 -3.12,-13.42 -0.62,-3.18 -4.15,-21.62 -7.09,-35.54 -3.4,13.81 -7.19,30.62 -10.53,40.59 -1.06,3.66 -2.46,7.14 -3.52,10.63 4.68,-0.09 8.69,-0.19 10.2,-0.33 2.83,-0.28 8.19,-1.03 14.06,-1.93 z"
   id="path912" />
	<path
   class="st7"
   d="m 2294.32,-1756.6 c -9.92,3.84 -22.01,7.65 -38.55,7.38 -14.53,-0.24 -35.34,-4.93 -40.34,-25.4 -2.5,-10.57 -2.38,-17.75 -1.09,-24.75 l 19.38,-0.18 c 8.5,0.98 14.66,2.25 14.53,10.27 -0.17,10.02 2.57,16.42 15.93,16.64 8.18,0.14 11.8,-6.15 11.9,-12.33 0.13,-7.85 -8.15,-12 -21.38,-20.24 -12.75,-6.73 -26.21,-11.46 -29.94,-18.21 -4.87,-8.6 -5.91,-16.47 -5.76,-25.16 0.35,-21.05 22.78,-33.37 47,-32.97 30.73,0.51 48.35,16.18 49.24,32.73 0.26,4.68 -0.14,8.18 -0.7,12.18 l -19.57,1.51 c -8.18,-0.14 -10.95,-4.36 -10.85,-10.87 -0.08,-5.35 -4.43,-14.78 -13.95,-14.93 -7.35,-0.12 -14.6,3.77 -14.74,12.12 -0.1,6.18 5.14,12.28 18.77,16.52 27.26,8.14 33.32,15.76 37.65,26.86 2.72,7.4 2.73,16.42 2,20.58 -2.06,12.83 -8.09,23.93 -19.53,28.25 z"
   id="path914" />
	<path
   class="st7"
   d="m 2414.51,-1850.67 -0.5,9.85 c -5.02,0.75 -15.19,-0.92 -26.4,0.4 l -4.02,0.43 c -0.19,1.67 -0.22,3.34 -0.24,4.51 -0.08,4.84 0.5,9.87 0.7,18.39 0.05,17.04 -0.78,27.05 -0.41,44.94 0.2,8.19 0.6,14.21 0.57,15.71 -0.06,3.51 0.57,5.69 -4.45,6.61 -6.03,1.07 -18.56,0.69 -24.4,0.6 -5.34,-0.09 -8.96,-3.49 -9.08,-6.83 -0.11,-3.34 -0.34,-9.86 -0.74,-15.55 -0.4,-6.19 1.05,-32.9 1.14,-38.24 0.05,-3.17 -0.41,-15.38 -0.87,-28.08 l -3.17,-0.05 c -6.68,-0.28 -15.2,-0.25 -22.88,-0.38 -3.04,-7.9 -2.56,-27.11 2.16,-29.37 14.88,-0.59 24.9,-0.25 30.76,-0.82 4.02,-0.43 17.07,-1.55 22.74,-0.79 11.34,1.19 24.91,-0.75 31.93,-1.14 3.35,-0.28 6.67,0.95 7.78,4.31 1.09,2.83 -0.49,7.82 -0.62,15.5 z"
   id="path916" />
</g>
<g
   id="g930"
   transform="translate(7367.108,322.83798)">
	<path
   class="st7"
   d="m 2086.88,-1657.09 c -0.92,13.96 0,28.85 0,30.84 0,6.75 -10.28,7.21 -18.72,7.21 l -8.13,-0.77 c -0.61,-5.06 0.46,-44.19 0.77,-56.62 -1.38,2.46 -2.76,5.22 -4.3,8.13 -2.46,4.76 -11.82,22.25 -13.04,25.32 -1.53,3.68 -6.29,5.37 -11.2,5.37 -3.68,0.15 -8.59,-0.61 -10.28,-4.45 -0.92,-1.99 -10.13,-15.8 -16.11,-25.01 0.15,6.6 0.92,12.58 1.38,17.34 0.77,10.28 1.07,21.79 1.07,23.32 0,9.21 -18.26,6.6 -28.23,6.6 -4.6,0 -3.22,-3.07 -3.38,-6.14 -0.15,-3.07 -0.46,-9.05 -0.92,-14.27 -0.61,-5.68 0.77,-53.09 0.77,-58 0,-5.22 -2.61,-15.8 -2.15,-28.08 5.68,-0.77 13.35,-1.07 21.33,-1.07 4.3,-0.46 8.9,-1.53 10.43,1.99 2.15,4.76 11.05,21.17 12.12,24.7 1.38,4.91 8.13,18.26 14.27,30.23 5.22,-11.66 12.43,-27.77 14.58,-33.45 1.23,-3.53 7.98,-21.48 10.28,-26.09 5.06,-3.38 11.2,-2.76 19.64,-4.3 4.3,-0.92 7.67,2.3 7.67,6.14 0,5.06 0.77,26.39 1.07,30.08 0.16,2.16 2.16,23.95 1.08,40.98 z"
   id="path920" />
	<path
   class="st7"
   d="m 2192.45,-1617.96 c -5.37,1.38 -20.87,3.22 -24.7,-2.15 -1.99,-6.14 -2.46,-8.75 -3.38,-13.81 -4.3,0.61 -9.51,0.92 -15.8,0.92 l -20.1,1.38 c -0.77,2.92 -1.69,5.98 -2.46,8.13 -2.92,7.67 -8.44,7.06 -15.34,6.44 -3.53,-0.31 -10.28,-1.07 -14.12,-1.84 -3.99,-0.61 -6.14,-0.77 -4.14,-6.75 4.6,-15.5 15.04,-44.19 16.27,-48.79 1.23,-5.22 11.35,-31 13.5,-37.13 1.53,-4.3 3.22,-10.43 3.99,-13.5 0.92,-3.07 4.91,-7.06 8.29,-6.9 15.5,0.46 31,-2.92 32.68,3.84 1.38,5.52 7.52,27.93 12.12,42.66 5.52,17.8 9.21,27.93 9.67,29.92 1.07,4.14 5.98,24.24 7.21,29.46 0.91,3.82 -0.47,7.2 -3.69,8.12 z m -34.37,-40.05 c -1.38,-5.98 -2.61,-10.74 -3.07,-12.28 -0.61,-2.92 -4.14,-19.79 -7.06,-32.53 -2.92,12.74 -6.14,28.23 -9.05,37.44 -0.92,3.38 -2.15,6.6 -3.07,9.82 4.3,-0.15 7.98,-0.31 9.36,-0.46 2.61,-0.3 7.52,-1.07 12.89,-1.99 z"
   id="path922" />
	<path
   class="st7"
   d="m 2295.25,-1617.35 c -5.06,0.61 -11.2,1.53 -15.65,1.69 -4.91,0.15 -10.28,-4.14 -12.28,-7.06 -1.99,-3.07 -7.98,-16.88 -10.59,-21.64 -1.69,-3.07 -3.07,-5.98 -4.6,-8.75 -4.3,0 -7.98,-0.15 -10.74,-0.15 l -5.22,0.15 c 0,12.74 0.15,23.63 0.15,25.63 0,5.22 -7.06,6.29 -10.59,7.67 l -15.34,-0.15 c -4.76,0 -7.98,-3.53 -8.13,-6.6 -0.15,-2.92 -0.15,-8.59 -0.77,-13.81 -0.77,-5.68 2.3,-30.23 2.3,-35.14 0,-5.22 -2.15,-44.96 -1.84,-57.23 5.98,-1.23 12.89,-2.15 17.49,-2.3 6.75,-0.31 22.56,-0.77 37.59,-0.77 18.72,0 34.99,5.22 40.05,16.73 3.38,7.67 3.38,14.12 3.68,21.79 0.61,13.2 0.77,21.02 -11.66,32.68 -1.53,1.38 -3.22,2.76 -4.91,3.84 2.46,2.61 3.84,5.37 5.52,7.98 4.76,8.59 9.36,19.64 13.2,27.16 1.7,3.53 -2.9,7.36 -7.66,8.28 z m -59.38,-59.07 c 3.07,0.15 5.52,0.15 6.44,0.15 4.91,0 20.87,-2.15 23.17,-7.37 4.3,-10.59 4.45,-20.25 -0.92,-25.78 -4.45,-4.45 -17.19,-3.22 -22.1,-3.22 l -5.68,0.15 c -0.46,5.98 -1.38,12.43 -1.23,14.58 z"
   id="path924" />
	<path
   class="st7"
   d="m 2383.79,-1624.71 c -9.05,3.68 -20.1,7.37 -35.29,7.37 -13.35,0 -32.53,-3.99 -37.44,-22.71 -2.46,-9.67 -2.46,-16.27 -1.38,-22.71 l 17.8,-0.46 c 7.83,0.77 13.5,1.84 13.5,9.21 0,9.21 2.61,15.04 14.88,15.04 7.52,0 10.74,-5.83 10.74,-11.51 0,-7.21 -7.67,-10.89 -19.95,-18.26 -11.81,-5.98 -24.24,-10.13 -27.77,-16.26 -4.6,-7.83 -5.68,-15.04 -5.68,-23.02 0,-19.33 20.41,-31 42.66,-31 28.23,0 44.65,14.12 45.73,29.31 0.31,4.3 0,7.52 -0.46,11.2 l -17.95,1.69 c -7.52,0 -10.13,-3.84 -10.13,-9.82 -0.15,-4.91 -4.3,-13.5 -13.04,-13.5 -6.75,0 -13.35,3.68 -13.35,11.35 0,5.68 4.91,11.2 17.49,14.88 25.16,7.06 30.84,13.96 34.99,24.09 2.61,6.75 2.76,15.04 2.15,18.87 -1.7,11.81 -7.07,22.09 -17.5,26.24 z"
   id="path926" />
	<path
   class="st7"
   d="m 2510.38,-1627.78 c 0,7.21 -13.2,7.98 -22.56,7.98 -4.45,0 -7.37,-3.99 -7.67,-7.21 -0.31,-3.07 0,-8.13 -0.61,-13.35 -0.31,-2.61 -0.46,-9.51 -0.31,-16.73 -3.84,0.61 -7.98,1.07 -12.74,1.23 l -19.49,1.69 c 0.15,13.2 0.31,24.7 0.31,26.7 0,6.9 -15.96,7.52 -26.09,7.52 -4.91,0 -7.98,-3.53 -8.13,-6.6 -0.15,-2.92 -0.31,-8.59 -0.92,-13.81 -0.61,-5.68 1.23,-30.23 1.23,-35.14 0,-5.22 -3.22,-38.67 -2.61,-50.94 5.68,-0.77 17.03,-2.45 21.94,-2.45 12.89,0 11.97,3.07 13.04,10.74 0.77,5.83 0.46,17.49 0.77,20.87 0,1.07 0.15,7.06 0.15,15.19 6.6,-0.15 12.43,-0.77 14.88,-1.23 3.38,-0.46 9.97,-1.53 17.03,-3.07 -1.23,-10.89 -3.22,-28.39 -3.38,-39.13 2.61,-8.59 13.81,-6.44 22.4,-4.91 4.14,0.77 8.59,1.84 8.59,5.68 0,5.06 0.92,22.25 1.23,25.93 0.15,2.15 -0.46,24.09 1.99,40.97 2.02,13.96 0.95,28.07 0.95,30.07 z"
   id="path928" />
</g>
<g
   id="g944"
   transform="translate(7367.108,322.83798)">
	<path
   class="st7"
   d="m 1891.33,-1506.07 c -9.48,-15.66 -8.48,-33.78 -8.28,-46.9 0.18,-5.94 -0.88,-17.5 0.09,-25.31 0.8,-6.72 -0.11,-14.53 2.72,-18.9 1.57,-1.09 7.98,-2.63 12.98,-2.77 7.5,-0.13 11.72,0.04 18.27,3.66 4.52,3.3 2.1,24.54 1.77,29.85 -0.34,9.37 -0.36,12.97 -0.22,17.65 0.45,6.56 -0.35,12.19 -0.07,19.06 1.99,12.97 9.79,14.72 14.32,14.74 3.44,0.01 11.89,-5.58 12.23,-11.68 0.34,-7.65 0.37,-16.56 0.39,-21.72 0.03,-7.34 0.82,-12.5 0.23,-22.19 -0.6,-8.44 1.51,-29.84 1.52,-33.27 l 3.44,-1.24 c 7.19,-1.69 15.32,-1.51 22.19,0.39 5.61,2.83 3.38,17.67 4.12,29.23 0.59,9.69 1.18,20.94 1.15,30.31 -0.03,9.06 0.24,21.09 -4.33,33.58 -5.84,17.32 -18.21,23.84 -40.55,23.77 -11.41,-0.03 -32.03,-2.29 -41.97,-18.26 z"
   id="path932" />
	<path
   class="st7"
   d="m 2087.53,-1493.84 c -0.02,6.87 -11.74,7.3 -20.65,7.27 -3.91,0.14 -7.66,0.76 -9.99,-3.16 -1.4,-2.82 -11.05,-13.16 -13.69,-17.7 -2.95,-5.01 -17.73,-22.72 -23.02,-29.14 0.29,6.41 1.21,12.5 1.5,17.19 0.59,10.47 1,26.1 1,27.66 -0.01,3.75 -19.38,2.75 -29.85,2.71 -4.69,-0.02 -3.11,-3.14 -3.26,-6.26 -0.3,-3.13 -0.44,-9.22 -1.04,-14.53 -0.61,-5.78 0.5,-54.06 0.51,-59.06 0.02,-5.31 -2.14,-12.66 -1.63,-25.16 3.3,-4.83 12.82,-3.71 22.36,-5.7 5.16,-1.08 10.63,-0.28 12.18,3.32 2.01,4.85 11.32,24.26 13.19,27.7 0.93,1.57 14.77,21.3 23.94,35.86 l 0.05,-13.59 c 0.02,-4.84 -3.3,-39.23 -3.41,-54.7 4.54,-3.42 12.04,-3.55 20.79,-3.84 5.16,-0.14 8.27,1.9 8.26,5.81 -0.02,5.16 0.69,26.88 0.99,30.63 0.3,2.34 -0.24,24.53 1.89,41.72 1.81,15.79 -0.12,30.94 -0.12,32.97 z"
   id="path934" />
	<path
   class="st7"
   d="m 2100.23,-1509.57 c -0.61,-5.78 0.54,-20.47 0.56,-25.47 0.01,-1.72 0.37,-17.19 -0.08,-23.59 -0.89,-12.5 -1.93,-30.32 -1.59,-38.6 5.79,-2.32 16.1,-2.29 22.04,-2.27 12.34,0.04 12.65,1.76 13.72,9.58 0.76,5.78 0.4,19.06 0.55,22.5 -0.01,3.28 0.91,7.97 0.88,16.88 -0.03,7.5 -0.37,16.56 -0.4,25.15 -0.05,14.37 0.06,27.5 0.06,29.53 -0.01,3.75 -5.18,6.7 -11.12,7.46 -5.31,0.76 -10.15,-0.5 -15,-0.52 -4.84,-0.02 -8.43,-3 -8.73,-6.12 -0.3,-3.13 -0.13,-9.22 -0.89,-14.53 z"
   id="path936" />
	<path
   class="st7"
   d="m 2234.07,-1583.02 -0.34,9.22 c -4.69,0.76 -14.22,-0.67 -24.69,0.7 l -3.75,0.46 c -0.16,1.56 -0.17,3.12 -0.17,4.22 -0.02,4.53 0.59,9.22 0.88,17.19 0.26,15.94 -0.4,25.31 0.17,42.03 0.29,7.66 0.74,13.28 0.73,14.69 -0.01,3.28 0.61,5.31 -4.08,6.24 -5.63,1.07 -17.35,0.88 -22.81,0.86 -5,-0.02 -8.43,-3.15 -8.57,-6.28 -0.14,-3.13 -0.44,-9.22 -0.89,-14.53 -0.45,-5.78 0.57,-30.78 0.59,-35.78 0.01,-2.97 -0.58,-14.38 -1.16,-26.25 l -2.97,-0.01 c -6.25,-0.18 -14.22,-0.05 -21.4,-0.07 -2.94,-7.35 -2.73,-25.32 1.66,-27.49 13.91,-0.73 23.28,-0.55 28.75,-1.15 3.75,-0.46 15.94,-1.66 21.25,-1.02 10.62,0.97 23.28,-1.01 29.85,-1.46 3.13,-0.3 6.25,0.8 7.33,3.93 1.06,2.63 -0.36,7.32 -0.38,14.5 z"
   id="path938" />
	<path
   class="st7"
   d="m 2337.96,-1490.79 c -1.26,2.81 -4.23,3.89 -7.51,3.72 -7.18,-0.65 -20.77,-2.57 -32.49,-1.67 -5.78,0.45 -18.91,1.34 -22.81,0.86 -6.25,-0.65 -33.14,4.11 -33.12,-1.68 -0.15,-3.13 -0.27,-11.41 -0.72,-16.72 -0.76,-5.78 0.88,-28.59 0.9,-33.59 0.01,-2.5 -0.73,-13.6 -0.7,-23.75 0.01,-2.03 -0.76,-5.47 -0.76,-7.66 0.01,-3.44 0.49,-5.78 0.34,-7.97 -0.76,-5.78 -0.27,-11.41 0.05,-14.69 9.54,-1.37 22.66,-0.86 28.75,-1.46 4.22,-0.3 17.04,-1.66 23.13,-1.17 11.71,1.13 25.31,-0.85 32.66,-1.29 3.13,-0.3 6.56,0.96 7.8,3.78 1.08,2.82 -0.33,6.09 -0.36,13.44 l -0.34,8.75 c -5.16,1.08 -22.03,-0.08 -33.28,0.98 -5.63,0.61 -15.47,0.57 -24.06,0.7 -0.17,2.81 -0.17,5.31 -0.02,6.72 0.15,2.19 -0.49,5.78 -0.51,12.97 v 0.31 c 4.69,-0.14 7.97,-0.13 11.25,-0.59 9.07,-0.91 12.19,-0.9 25.32,-2.1 6.72,-0.6 7.18,3.31 7.16,6.59 l 0.57,16.56 c -9.69,2.31 -16.56,0.57 -27.66,1.31 -3.91,0.3 -9.22,0.91 -16.25,1.66 0.14,4.84 0.44,9.69 0.58,13.75 7.19,-0.44 13.91,-0.73 17.66,-0.41 6.87,0.34 12.5,-0.43 17.34,-0.41 11.72,0.04 22.03,0.08 27.03,1.19 l 0.44,7.03 c 1.04,7.19 1.34,11.87 -0.39,14.84 z"
   id="path940" />
	<path
   class="st7"
   d="m 2440.97,-1505.13 c -14.29,19.95 -40.21,16.11 -51.93,16.23 l -31.88,0.83 c -5,-0.02 -8.11,-3.46 -8.26,-6.59 -0.15,-2.97 -0.28,-8.75 -0.89,-14.06 -0.61,-5.78 2.6,-30.77 2.62,-35.77 0.02,-5.31 -4.4,-38.92 -3.73,-51.42 5.78,-0.76 17.35,-1.97 22.35,-2.27 7.97,-0.6 23.75,-0.54 36.72,-0.5 20.47,0.07 36.21,10.44 38.84,17.79 4.34,10.48 6.2,15.02 6.47,25.96 0.58,18.75 1.47,31.88 -10.31,49.8 z m -25.64,-41.65 c -0.29,-5.63 -0.74,-11.72 -0.73,-15.31 -0.27,-13.44 -20.11,-13.04 -24.95,-13.05 l -7.03,-0.18 c 0.14,4.69 0.13,8.91 0.28,10.63 0.15,2.19 0.37,28.91 0.61,48.59 l 2.5,0.01 c 7.81,0.03 21.4,0.7 26.43,-7.72 4.25,-9.37 3.33,-14.06 2.89,-22.97 z"
   id="path942" />
</g>




<path
   class="st13"
   d="m -1481.4768,-1999.7306 c -7,111.33 26.21,224.77 92.15,314.74 20.08,27.4 44.08,53.4 75.26,66.87 103.78,44.83 229.02,-65.89 330.99998,-17.12 39.62,18.95 65.47,58.74 80.86,99.87 15.39,41.13 22.3,84.94 35.86,126.71 24.25,74.68 70.18,142.18 130.75,192.15 54.51,44.97 50.44,133.9 46.99,204.48 -3.01,61.73998 -30.33,119.92998 -37.05,181.36998 -3,27.42 -1.85,55.11 0.03,82.63 3.36,49.11 9.7,99.96001 35.85,141.66001 16.17,25.79 39.12,46.66 63.44,64.95 21.77,16.37 45.28,31.13 71.46,38.65 23.7,6.81 48.7,7.45 72.88,12.28 26.87,5.37 52.67,15.99 75.54,31.08 0,0 107.4,118.93 156.19,246.22 48.79,127.29 74.25,180.32 154.860003,224.87 80.61,44.55 229.189997,237.6 231.279997,290.63"
   id="path960" />














































</svg>
