<?xml version="1.0" encoding="UTF-8" standalone="no"?>
<svg
   xmlns:dc="http://purl.org/dc/elements/1.1/"
   xmlns:cc="http://creativecommons.org/ns#"
   xmlns:rdf="http://www.w3.org/1999/02/22-rdf-syntax-ns#"
   xmlns:svg="http://www.w3.org/2000/svg"
   xmlns="http://www.w3.org/2000/svg"
   xmlns:sodipodi="http://sodipodi.sourceforge.net/DTD/sodipodi-0.dtd"
   xmlns:inkscape="http://www.inkscape.org/namespaces/inkscape"
   width="308.60486mm"
   height="273.46979mm"
   viewBox="0 0 308.60486 273.46979"
   version="1.1"
   id="svg666"
   inkscape:version="1.0.1 (c497b03c, 2020-09-10)"
   sodipodi:docname="get-involved-man-outlines.svg">
  <defs
     id="defs660" />
  <sodipodi:namedview
     id="base"
     pagecolor="#ffffff"
     bordercolor="#666666"
     borderopacity="1.0"
     inkscape:pageopacity="0.0"
     inkscape:pageshadow="2"
     inkscape:zoom="0.35"
     inkscape:cx="1486.0474"
     inkscape:cy="572.24884"
     inkscape:document-units="mm"
     inkscape:current-layer="layer1"
     inkscape:document-rotation="0"
     showgrid="false"
     inkscape:window-width="1252"
     inkscape:window-height="755"
     inkscape:window-x="0"
     inkscape:window-y="23"
     inkscape:window-maximized="0" />
  <metadata
     id="metadata663">
    <rdf:RDF>
      <cc:Work
         rdf:about="">
        <dc:format>image/svg+xml</dc:format>
        <dc:type
           rdf:resource="http://purl.org/dc/dcmitype/StillImage" />
        <dc:title></dc:title>
      </cc:Work>
    </rdf:RDF>
  </metadata>
  <g
     inkscape:label="Layer 1"
     inkscape:groupmode="layer"
     id="layer1"
     transform="translate(195.12386,-157.02107)">
    <path
       class="st23"
       d="m -129.26588,479.12544 c 8.18885,-22.08477 6.07483,-74.37438 1.88912,-106.72498 -0.41804,-3.22263 -0.8546,-6.54315 -2.47121,-9.36361 -4.6937,-8.19414 -16.60525,-8.54604 -23.62464,-14.86429 -5.03238,-4.52967 -6.95061,-11.74221 -6.59077,-18.50231 0.35983,-6.76011 2.70669,-13.23711 5.02973,-19.59769 5.54566,-15.18444 11.16277,-30.5144 19.93635,-44.09281 8.77358,-13.57842 21.10581,-25.44763 36.414606,-30.63346 3.034771,-1.02658 6.275915,-1.84944 8.667745,-3.98198 5.11705,-4.56671 4.11957,-12.62062 5.42661,-19.35427 1.91823,-9.89542 9.82133,-18.07104 19.27225,-21.57412 9.45092,-3.50309 20.16389,-2.68023 29.56189,0.95514 3.45017,1.33615 6.87123,3.12473 9.14136,6.04573 1.86796,2.40242 2.80987,5.38427 3.556,8.33438 3.24379,12.81112 3.43694,26.38689 0.55562,39.28533 -0.71437,3.19352 -1.61395,6.51669 -0.77787,9.67846 0.75142,2.84162 2.79929,5.12762 4.72017,7.35277 12.5968097,14.59177 22.4710597,31.53039 28.95864,49.68345 2.18017,6.1013 6.31031,13.78744 12.62592,12.34282 2.3786,-0.54504 4.21746,-2.36009 6.05366,-3.96611 8.41905,-7.36071 19.4945,-11.61256 30.6758,-11.77396 4.60375,-0.0661 9.55675,0.69057 12.89578,3.86292 3.25702,3.09563 4.29154,7.80256 5.16996,12.21052 1.30175,6.55109 2.2225,14.39334 -2.667,18.94417 -2.67759,2.49237 -6.51668,3.31787 -9.47737,5.46894 -4.00314,2.91041 -5.9346,7.86341 -9.30804,11.48556 -4.01902,4.318 -9.80017,6.46906 -15.41463,8.27881 -12.45393,4.01108 -25.22272,7.04586 -38.1476203,9.06463 1.29381,13.29266 -3.43693996,26.5721 -2.55587996,39.89652 1.20385996,18.21128 3.60891996,43.28319 3.27024996,61.53151"
       id="path222"
       style="fill:none;stroke:#e1dd19;stroke-width:2.10204;stroke-miterlimit:10" />
    <path
       class="st24"
       d="m -129.49078,473.66709 c 0.75142,-27.50079 -0.1561,-55.05186 -2.71198,-82.43888 -0.32279,-3.44753 -0.69056,-6.97178 -2.14577,-10.09121 -3.27289,-7.01146 -11.00931,-10.22615 -16.89364,-15.07861 -11.06488,-9.12283 -15.66863,-24.68827 -15.14475,-39.31708 0.52387,-14.62881 5.47687,-28.65702 10.54893,-42.32275 4.82336,-12.99633 10.21292,-26.51919 20.65073,-35.306 11.86657,-9.98802 29.60688,-13.33764 36.792962,-27.30764 1.531937,-2.97657 2.44475,-6.24417 3.667129,-9.37155 4.7281,-12.10468 14.33247,-22.07947 26.01647,-27.01395 11.684,-4.93448 25.28888,-4.7678 36.85382,0.45508 6.00868,2.71198 11.55435,6.83154 15.21883,12.45923 12.5438997,19.26431 -0.84931,47.02969 8.8370797,67.98468 6.65957,14.40392 23.1272303,22.81238 27.2415003,38.20055 0.61384,2.29129 1.71715,5.31018 3.99786,5.00327 2.08756,-0.28046 2.60879,-3.07711 3.67771,-4.953 1.44991,-2.5453 4.39473,-3.67507 7.14375,-4.47411 12.01208,-3.4925 25.36031,-4.11162 36.57069,1.55575 11.2104,5.66738 19.42571,18.75367 16.99155,31.41663 -1.64571,8.55398 -7.54592,15.45431 -13.21859,21.90221 -4.59846,5.22552 -9.19426,10.45104 -13.79272,15.67656 -3.68829,4.19364 -7.46654,8.46137 -12.25285,11.22362 -6.11452,3.52954 -13.3006,4.2889 -20.07658,6.10394 -6.77598,1.81504 -13.83242,5.27579 -16.76665,11.85333 -1.7277303,3.87615 -1.7727103,8.30263 -1.7171503,12.57036 0.2566503,18.9918 1.9314603,37.96242 5.0059203,56.68963"
       id="path224"
       style="fill:none;stroke:#f01c3f;stroke-width:2.10204;stroke-miterlimit:10" />
    <path
       class="st25"
       d="m -135.00999,469.68247 c -1.1721,-21.60853 -2.3442,-43.21969 -3.51631,-64.82822 -0.45244,-8.32909 -1.13242,-17.27729 -6.41085,-23.73842 -6.06161,-7.42156 -16.81427,-9.76048 -22.7674,-17.26935 -4.28625,-5.4028 -5.38692,-12.59417 -6.33942,-19.42307 -1.30439,-9.35302 -2.61143,-18.74573 -2.55587,-28.1887 0.18256,-31.45103 16.5444,-62.37552 42.44181,-80.22431 8.02217,-5.5298 16.95186,-9.92982 23.8125,-16.84867 9.04081,-9.11754 13.768919,-21.89427 23.116651,-30.69431 7.90046,-7.43744 18.53671,-11.42471 29.24704,-13.16567 11.03842,-1.79388 22.66156,-1.32556 32.97502,2.99508 10.31346,4.32329 19.1558297,12.82171 22.3652297,23.53469 4.59846,15.35906 -2.68288,31.9696 -0.21431,47.81021 2.25160004,14.46212 12.24227,26.36043 22.0662503,37.211 0.99483,1.09802 2.0267,2.21985 3.36285,2.86014 2.54529,1.21709 5.54302,0.42598 8.28675,-0.23548 12.7291,-3.0771 26.53771,-2.81781 38.50217,2.50561 11.96444,5.32341 21.78049,16.12106 24.24111,28.98246 2.23573,11.684 -1.60867,23.79662 -7.52739,34.11537 -11.63638,20.28031 -31.66797,35.56794 -54.30043,41.44169 -3.72798,0.96837 -7.71525,1.78858 -10.54629,4.40266 -5.13557,4.74134 -4.24921,12.94342 -2.9554,19.812 3.56129,18.92566 7.12258,37.84866 10.68388,56.77431"
       id="path226"
       style="fill:none;stroke:#f071a5;stroke-width:2.10204;stroke-miterlimit:10" />
    <path
       class="st26"
       d="m -157.65303,469.73009 c 11.15219,-7.75758 12.04119,-24.16175 11.63373,-38.10265 -0.41804,-14.31926 -1.33879,-29.69684 -9.87954,-40.94428 -5.28373,-6.95854 -12.99898,-11.58875 -18.24831,-18.57375 -3.9714,-5.28373 -6.34471,-11.68135 -7.99042,-18.16629 -8.7339,-34.45139 2.15106,-70.98506 16.81427,-103.1875 3.22527,-7.08554 6.81831,-14.31131 12.7344,-19.17435 6.74158,-5.54302 15.61835,-7.30515 23.20396,-11.50673 18.542,-10.26583 27.09333,-33.4645 44.217161,-46.11423 19.56594,-14.45419 46.82067,-12.22639 68.79961,-2.1881 10.9590397,5.00591 21.9445397,12.75821 25.4343897,24.65916 3.7279803,12.7053 -2.09285,26.11967 -2.87602,39.37794 -0.82815,14.04144 4.3735603,28.35275 13.9303103,38.31431 1.14565,1.19327 2.37596,2.34421 3.85498,3.03477 2.77548,1.29646 5.97959,0.7964 8.9879,0.33338 11.14425,-1.71186 22.84412,-2.51354 33.39041,1.60602 13.4911,5.2705 22.99758,17.67417 31.8082,29.53014 2.746379,3.69623 5.566839,7.55121 6.543149,12.10998 1.48166,6.91621 -1.53988,13.91973 -4.48469,20.30942 -3.492499,7.58031 -6.984999,15.15798 -10.477499,22.73829 -3.28083,7.11994 -6.64369,14.36688 -11.86127,20.10569 -5.94519,6.54315 -13.87739,10.67065 -21.63497,14.6685 -9.41123,4.84981 -18.8251,9.69698 -28.23633,14.54679 -0.52123,7.65175 3.88673,14.57326 6.96912,21.54239 5.25463,11.8745 6.8924,25.44762 4.61963,38.30373"
       id="path228"
       style="fill:none;stroke:#084ba0;stroke-width:2.10204;stroke-miterlimit:10" />
    <path
       class="st27"
       d="m -165.18572,462.32705 c 3.23057,-13.843 4.32594,-28.18342 3.2385,-42.35716 -0.36777,-4.80748 -1.15358,-9.96156 -4.50585,-13.4276 -2.08227,-2.15371 -4.92654,-3.39196 -7.27075,-5.25992 -4.39473,-3.50044 -6.72571,-8.91116 -8.89,-14.09435 -4.5429,-10.88496 -9.12812,-21.91279 -10.80029,-33.58886 -3.37079,-23.54527 5.34458,-46.92385 8.85031,-70.4506 2.12196,-14.24781 2.56911,-29.45606 10.40342,-41.54487 13.95677,-21.53973 45.23581,-24.511 62.64275,-43.37315 8.28675,-8.97996 12.983102,-21.15079 22.582181,-28.70994 5.7203,-4.50585 12.76615,-7.00616 19.84111,-8.72331 16.55498,-4.01637 34.33233,-4.04812 50.33698,1.78594 16.0046397,5.83406 30.03021,17.8726 36.53896,33.61531 4.21216,10.18911 5.19641,21.53179 3.94229,32.48819 -0.75671,6.61987 -2.30981,13.21329 -1.90765,19.86227 0.40481,6.65162 3.22263,13.64721 9.04611,16.88041 10.56745,5.87111 23.72783,-3.29141 35.59175,-0.9816 13.21592,2.57175 19.42305,17.5604 29.62274,26.34985 5.59858,4.82336 12.890499,8.16769 16.332719,14.70555 3.52955,6.70718 1.98438,14.85635 0.11907,22.19854 -4.50057,17.72443 -10.4775,35.31923 -20.550189,50.58039 -10.07269,15.26117 -24.61947,28.11727 -42.12959,33.38513 -3.40255,1.02394 -7.60413,2.52941 -7.95602,6.06689 -0.13494,1.35732 0.38893,2.68552 0.88106,3.95818 5.69912,14.78756 8.15181,30.81602 7.13581,46.63017"
       id="path230"
       style="fill:none;stroke:#19953a;stroke-width:1.88947;stroke-miterlimit:10" />
  </g>
</svg>
