<svg xmlns="http://www.w3.org/2000/svg" width="515.224" height="85.772" viewBox="0 0 136.32 22.694">
  <path fill="#e2d750" vector-effect="non-scaling-stroke" class="st6" d="M.711 3.506c9.512-.246 19.024-.54 28.536-.839 8.625-.27 17.248-.545 25.876-.764 8.099-.207 16.2-.365 24.302-.413 7.94-.048 15.88.008 23.815.214a606.426 606.426 0 0127.554 1.336c.944.07.942-1.405 0-1.473-8.181-.585-16.373-1-24.57-1.252a715.627 715.627 0 00-23.83-.312C74.332.024 66.27.162 58.21.353c-8.541.203-17.082.468-25.62.735-9.382.293-18.764.59-28.146.844-1.244.034-2.49.066-3.734.098-.947.029-.95 1.5 0 1.476zM2.878 22.628a3540.299 3540.299 0 00132.73-1.667c.946-.03.951-1.503.001-1.474a3575 3575 0 01-51.911 1.243 3578.433 3578.433 0 01-80.822.426c-.948-.005-.948 1.466.002 1.472zM130.81 2.67c1.161 1.818 1.444 3.913 1.444 6.032 0 2.408-.156 4.821-.246 7.229-.055 1.445-.108 2.887-.164 4.331-.037.947 1.437.947 1.474 0 .098-2.603.196-5.204.296-7.808.088-2.296.273-4.625-.135-6.903a9.988 9.988 0 00-1.394-3.622c-.513-.799-1.786-.06-1.275.741zM.166 2.718a63.493 63.493 0 01.376 18.777c-.05.394.376.736.736.736.439 0 .685-.339.735-.736.627-4.924.69-9.916.167-14.854a69.588 69.588 0 00-.595-4.315c-.067-.392-.55-.611-.905-.513-.413.114-.58.51-.514.905z"/>
  
</svg>
