<?xml version="1.0" encoding="UTF-8" standalone="no"?>
<svg
   xmlns:dc="http://purl.org/dc/elements/1.1/"
   xmlns:cc="http://creativecommons.org/ns#"
   xmlns:rdf="http://www.w3.org/1999/02/22-rdf-syntax-ns#"
   xmlns:svg="http://www.w3.org/2000/svg"
   xmlns="http://www.w3.org/2000/svg"
   xmlns:xlink="http://www.w3.org/1999/xlink"
   version="1.1"
   id="Layer_1"
   x="0px"
   y="0px"
   viewBox="0 0 2714.4163 1449.2629"
   xml:space="preserve"
   width="2714.4163"
   height="1449.2628"><metadata
   id="metadata1306"><rdf:RDF><cc:Work
       rdf:about=""><dc:format>image/svg+xml</dc:format><dc:type
         rdf:resource="http://purl.org/dc/dcmitype/StillImage" /><dc:title></dc:title></cc:Work></rdf:RDF></metadata><defs
   id="defs1304">
	<defs
   id="defs960">
		<rect
   id="SVGID_35_"
   x="-0.19"
   y="-3.97"
   width="2660.3"
   height="1180.71" />
	</defs>
	<clipPath
   id="SVGID_2_">
		<use
   xlink:href="#SVGID_35_"
   style="overflow:visible"
   id="use962"
   x="0"
   y="0"
   width="100%"
   height="100%" />
	</clipPath>
	
	
	
	
</defs>
<style
   type="text/css"
   id="style833">
	.st0{fill:none;stroke:#EF71A4;stroke-width:8.5855;stroke-miterlimit:10;}
	.st1{fill:#FFFFFF;stroke:#19943A;stroke-width:1.4173;stroke-miterlimit:10;}
	.st2{fill:#232324;}
	.st3{fill:#DDDA1B;}
	.st4{fill:none;stroke:#084B9F;stroke-width:9.296;stroke-miterlimit:10;}
	.st5{fill:#084B9F;}
	.st6{fill:none;stroke:#19943A;stroke-width:9.296;stroke-miterlimit:10;}
	.st7{fill:#19943A;}
	.st8{fill:none;stroke:#E0DC19;stroke-width:8.8593;stroke-miterlimit:10;}
	.st9{fill:#E0DC19;}
	.st10{fill:#FFFFFF;}
	.st11{fill:none;stroke:#E0DC19;stroke-width:3.339;stroke-miterlimit:10;}
	.st12{fill:none;stroke:#D9CE28;stroke-width:2;stroke-miterlimit:10;}
	.st13{fill:#DACE29;}
	.st14{fill:#DB434D;}
	.st15{fill:#DC809F;}
	.st16{fill:#075396;}
	.st17{fill:#3E8554;}
	.st18{clip-path:url(#SVGID_4_);fill:none;stroke:#EF1C3F;stroke-width:8.5855;stroke-miterlimit:10;}
	.st19{clip-path:url(#SVGID_4_);fill:none;stroke:#EF71A4;stroke-width:8.5855;stroke-miterlimit:10;}
	.st20{clip-path:url(#SVGID_4_);fill:none;stroke:#084B9F;stroke-width:8.5855;stroke-miterlimit:10;}
	.st21{clip-path:url(#SVGID_4_);fill:none;stroke:#19943A;stroke-width:8.4548;stroke-miterlimit:10;}
	.st22{fill:none;stroke:#E0DC19;stroke-width:8.5855;stroke-miterlimit:10;}
	.st23{fill:none;stroke:#19943A;stroke-width:2;stroke-miterlimit:10;}
	.st24{fill:#EF1C3F;}
	.st25{fill:none;stroke:#EF1C3F;stroke-width:2;stroke-miterlimit:10;}
	.st26{fill:none;stroke:#E0DC19;stroke-width:7.9447;stroke-miterlimit:10;}
	.st27{fill:none;stroke:#EF1C3F;stroke-width:7.9447;stroke-miterlimit:10;}
	.st28{fill:none;stroke:#EF71A4;stroke-width:7.9447;stroke-miterlimit:10;}
	.st29{fill:none;stroke:#084B9F;stroke-width:7.9447;stroke-miterlimit:10;}
	.st30{fill:none;stroke:#19943A;stroke-width:7.1413;stroke-miterlimit:10;}
	.st31{fill:none;stroke:#E0DC19;stroke-width:2;stroke-miterlimit:10;}
	.st32{fill:#242424;}
	.st33{fill:#D9CE28;}
	.st34{fill:none;stroke:#084B9F;stroke-width:2;stroke-miterlimit:10;}
	.st35{fill:none;stroke:#DACE29;stroke-width:8.5855;stroke-miterlimit:10;}
	.st36{fill:none;stroke:#19943A;stroke-width:8.586;stroke-miterlimit:10;}
	.st37{fill:none;stroke:#FFFFFF;stroke-width:1.8555;stroke-miterlimit:10;}
	.st38{fill:none;stroke:#E0DC19;stroke-width:3.339;stroke-linecap:round;stroke-linejoin:round;stroke-miterlimit:10;}
	.st39{fill:none;stroke:#FFFFFF;stroke-width:3.339;stroke-linecap:round;stroke-linejoin:round;stroke-miterlimit:10;}
	.st40{fill:none;stroke:#D9CE28;stroke-width:3.339;stroke-miterlimit:10;}
	.st41{fill:#EF71A4;}
	.st42{fill:none;stroke:#084B9F;stroke-width:3;stroke-miterlimit:10;}
	.st43{fill:none;stroke:#EF71A4;stroke-width:4;stroke-miterlimit:10;}
	.st44{fill:none;stroke:#EF71A4;stroke-width:2;stroke-miterlimit:10;}
	.st45{fill:none;stroke:#E0DC19;stroke-width:5;stroke-miterlimit:10;}
	.st46{clip-path:url(#SVGID_18_);fill:none;stroke:#EF1C3F;stroke-width:8.5855;stroke-miterlimit:10;}
	.st47{clip-path:url(#SVGID_18_);fill:none;stroke:#EF71A4;stroke-width:8.5855;stroke-miterlimit:10;}
	.st48{clip-path:url(#SVGID_18_);fill:none;stroke:#075396;stroke-width:8.5855;stroke-miterlimit:10;}
	.st49{clip-path:url(#SVGID_18_);fill:none;stroke:#19943A;stroke-width:8.4548;stroke-miterlimit:10;}
	.st50{fill:none;}
	.st51{font-family:'RockfordSans-Light';}
	.st52{font-size:34px;}
	.st53{font-family:'RockfordSans-Extrabold';}
	.st54{font-size:90px;}
	.st55{fill:none;stroke:#020202;stroke-miterlimit:10;}
	.st56{fill:#159456;}
	.st57{fill:none;stroke:#E0DC19;stroke-width:2.9351;stroke-miterlimit:10;}
	.st58{fill:none;stroke:#000000;stroke-width:3.2083;stroke-miterlimit:10;}
	.st59{font-size:26px;}
	.st60{font-size:53.4246px;}
	.st61{font-family:'Colby-StBlk';}
	.st62{font-size:154.0814px;}
	.st63{letter-spacing:-6;}
	.st64{clip-path:url(#SVGID_36_);}
	.st65{fill:#EC72A2;}
	.st66{fill:#024D9E;}
	.st67{fill:#149356;}
	.st68{fill:none;stroke:#B3B3B4;stroke-width:8.5039;stroke-linecap:round;stroke-linejoin:round;stroke-miterlimit:10;}
	.st69{font-size:50px;}
	.st70{fill:#2C2D2C;}
	.st71{font-size:70px;}
	.st72{font-size:24px;}
	.st73{opacity:0.7;}
	.st74{font-size:20px;}
	.st75{opacity:0.7;fill:#FFFFFF;}
	.st76{font-size:16.1502px;}
	.st77{font-size:55px;}
	.st78{fill:none;stroke:#19943A;stroke-width:2.5464;stroke-miterlimit:10;}
</style>




<g
   id="g847"
   transform="translate(54.306172,3.97)">
	<g
   id="g845">
		<path
   class="st3"
   d="M 2526.4258,-2.8967499 C 2450.9658,91.84325 2329.8,211.62 2227.73,276.91 c -15.57,9.96 -31.46,19.55 -48.02,27.77 -29.27,14.54 -61.22,24.2 -91.64,36.03 -50.42,19.61 -100.96,38.35 -152.54,54.57 -67.91,21.35 -125.13,71.8 -164.56,129.87 -37.11,54.65 -60,118.13 -72.96,182.59 -6.01,29.9 -10.47,60.39 -11.9,90.84 -0.4,8.53 -2.47,17.43 -5.15,26.26 -22.44,73.96 -90.83,121.77 -162.28,142.29 -69.52,19.96 -143.82,19.22 -215.1,10.93 -39.02,-4.54 -76.75,-11.95 -116.22,-10.9 -37.71,1 -75.27,6.63 -112.05,14.78 -85.32,18.91 -167.37,51.28 -246.91,86.96 -87.79,39.37 -173.11,84.02 -257.95,129.3 -21,11.21 -41.97,22.47 -62.95,33.72 -11.98,6.42 -31.1,15.62 -39.67,21.66 -17.57,12.38 -35.16,24.29 -54.21,34.38 -30.46,16.13 -64.54,29.65 -99.42,30.46 -25.25,0.59 -46.84,-8.18 -68.88,-19.22 -33.18,-16.62 -66.71,-35.88 -104.68,-37.8 -50.72,-2.57 -92.92,30.11 -124.28,66.8 -27.62,32.33 -49.73,69.03 -69.76,106.41 -4.31,8.04 7.92,15.21 12.24,7.15 20.99,-39.18 44.18,-78.11 74.23,-111.12 18.55,-20.38 40.49,-39.52 66.8,-48.97 38.11,-13.69 75.62,-1.41 110.35,15.63 16.54,8.12 32.67,17.09 49.63,24.33 27.74,11.84 56.49,13.27 85.92,7.14 31.87,-6.64 62.24,-20.66 90.21,-37.04 14.69,-8.61 27.83,-19.32 42.14,-28.32 19.79,-12.43 42.13,-22.24 62.78,-33.31 21.12,-11.32 42.25,-22.63 63.42,-33.86 42.74,-22.67 85.65,-45.03 128.97,-66.56 84.24,-41.86 170.26,-81.23 259.84,-110.32 74.39,-24.15 153.38,-42.57 232.09,-37.3 41.7,2.79 82.7,11.81 124.53,14.29 37.44,2.22 75.1,1.62 112.32,-3.26 86.49,-11.36 175.4,-49.86 218.24,-130.17 10.43,-19.56 18.92,-41.92 19.97,-64.3 3.19,-67.89 18.8,-137.82 46.38,-200.08 34.82,-78.59 94.43,-149.95 175.37,-183.28 24.96,-10.28 51.88,-16.8 77.24,-25.85 49.19,-17.55 97.57,-37.27 146.41,-55.75 18.68,-7.07 36.64,-13.9 54.15,-23.51 41.46,-22.76 80.19,-50.7 117.39,-79.8 50.39,-39.42 97.9601,-82.62989 141.53,-129.5 29.7184,-31.969412 58.6693,-66.556713 84.468,-103.4359743 -16.7922,-0.3107756 0,0 -16.7922,-0.3107756 z"
   id="path843" />
	</g>
</g>











<g
   clip-path="url(#SVGID_2_)"
   id="g969"
   transform="translate(54.306172,3.97)">
		<g
   id="g967">
			<path
   class="st24"
   d="m 2765,-294.22 c -16.12,154.07 -106.6,291.56 -211.49,400.99 -97.44,101.66 -215.1,190.5 -344.83,246.58 -69.55,30.07 -141.86,59.14 -215.03,79.17 -18.5,5.07 -36.23,12.36 -53.15,21.4 -82.54,44.08 -139.09,123.9 -170.5,210.47 -20.87,57.52 -29.61,116.83 -35.18,177.4 -1.87,20.35 -11.25,43.17 -22.2,61.62 -47.57,80.13 -142.94,111.94 -231.27,118.35 -38.09,2.76 -76.41,1.48 -114.39,-2.3 -33.36,-3.32 -66.33,-10.72 -99.88,-11.97 -52.35,-1.95 -104.71,8.11 -154.39,24.03 -114.59,36.72 -218.86,102.1 -317.6,169.48 -100.24,68.4 -196,143.19 -296.9,210.61 -40.91,27.34 -82.89,53.82 -127.6,74.55 -32.17,14.92 -67.96,28.27 -103.98,27.01 -13.85,-0.48 -27.5,-3.57 -39.88,-9.88 -8.11,-4.14 -15.29,8.09 -7.15,12.24 67.08,34.22 150.25,-10.11 208.45,-43.35 100.83,-57.59 192.88,-130.11 287.02,-197.7 101.82,-73.11 206.13,-145.8 320.65,-197.84 51.1,-23.22 104.85,-42.08 160.48,-50.69 25.38,-3.93 51.2,-5.44 76.85,-4.02 35.51,1.96 70.52,9.8 105.99,12.81 106.78,9.05 231.8,-1.51 312.14,-81.16 21.71,-21.53 39,-47.58 49.49,-76.35 10.35,-28.39 9.25,-58.45 13.49,-88.07 16.24,-113.53 62,-230.58 157.48,-300.32 21.98,-16.05 46.19,-29.7 72,-38.53 40.29,-13.78 81.18,-25.83 121.25,-40.49 73.05,-26.73 144.94,-56.38 211.87,-96.28 62.43,-37.21 121.23,-80.72 175.76,-128.74 114.57,-100.89 217.53,-227.1 264.65,-374.32 10.91,-34.09 18.3,-69.11 22.03,-104.71 0.94,-9.05 -13.24,-8.99 -14.18,0.01 z"
   id="path965" />
		</g>
	</g><g
   clip-path="url(#SVGID_2_)"
   id="g975"
   transform="translate(54.306172,3.97)">
		<g
   id="g973">
			<path
   class="st65"
   d="m 2836.42,-196.68 c -36.21,131.21 -130.22,241.98 -226.81,334.14 -87.01,83.01 -184.15,157.94 -288.28,218.3 -15.68,9.09 -31.59,17.86 -47.99,25.58 -27.87,13.11 -57.61,22.54 -86.29,33.7 -51.35,19.96 -102.69,40.36 -155.55,55.98 -60.37,17.83 -113.29,60.11 -151.6,109.05 -35.59,45.47 -60.31,98.49 -76.45,153.75 -10.62,36.36 -17.52,73.72 -21.85,111.32 -1.48,12.84 -1.49,28.12 -3.53,39.61 -10.73,60.58 -57.42,109.5 -110.45,137.06 -49.72,25.84 -106.54,35.79 -162.07,37.81 -38.93,1.42 -77.96,-1.03 -116.59,-5.87 -32.55,-4.08 -64.29,-10.33 -97.23,-10.02 -117.44,1.09 -227.72,56.52 -324.3,118.8 -103.49,66.73 -197.25,146.78 -295.35,220.87 -40.71,30.75 -82.36,61.03 -127.33,85.32 -33.02,17.84 -70.24,34.27 -108.53,33.6 -15.31,-0.27 -30.3,-3.75 -43.96,-10.72 -8.11,-4.14 -15.29,8.09 -7.15,12.24 72.58,37.04 157.57,-14.03 217.51,-53.51 99.31,-65.4 188.81,-144.77 284.6,-215.05 97.41,-71.47 204,-141.55 323.65,-167.89 27.84,-6.13 56.24,-9.54 84.77,-9.5 34.23,0.05 67.52,7.07 101.4,11.01 68.27,7.94 138.99,8.58 206.07,-8.15 74.34,-18.54 145.33,-62.7 176.94,-135.01 7.83,-17.91 12.65,-36.2 13.36,-55.72 1.42,-38.89 9.5,-78.87 19.31,-116.45 8.31,-31.85 19.26,-63.07 33.65,-92.69 35.2,-72.48 92.43,-137.25 167.96,-168.69 19.7,-8.2 40.97,-13.28 61.08,-20.23 46.8,-16.16 92.77,-34.56 138.95,-52.37 23.85,-9.2 48.23,-17.22 71.23,-28.44 39.85,-19.43 77.64,-43.36 114.41,-68.02 51.91,-34.81 101.88,-72.59 149.65,-112.9 104.97,-88.58 206.23,-192.45 267.33,-316.97 13.58,-27.67 24.92,-56.44 33.12,-86.17 2.42,-8.81 -11.25,-12.57 -13.68,-3.77 z"
   id="path971" />
		</g>
	</g><g
   clip-path="url(#SVGID_2_)"
   id="g981"
   transform="translate(54.306172,3.97)">
		<g
   id="g979">
			<path
   class="st66"
   d="m 2868.48,-166.28 c -36.61,132.72 -132.3,244.58 -230.27,337.43 -87.49,82.92 -185.11,158.04 -289.89,217.93 -46.18,26.39 -95.44,43.24 -144.97,62.48 -47.06,18.29 -94.32,35.59 -142.48,50.67 -63.71,19.95 -118.1,65.75 -157.04,118.93 -35.87,49.01 -59.58,106.25 -74.26,164.94 -9.23,36.91 -16.9,76.17 -18.3,114.27 -0.3,8.13 -0.64,13.15 -2.41,20.99 -14.52,64.19 -66.96,112.85 -125.42,138.61 -54.91,24.19 -116.38,31.11 -175.86,30.37 -42.35,-0.52 -84.11,-5.62 -125.91,-12.01 -26,-3.97 -52.3,-5.08 -78.53,-2.91 -108.62,8.96 -205.03,68.37 -288.07,135.13 -87.16,70.07 -163.22,152.23 -244.37,228.86 -33.24,31.39 -67.5,62.55 -105.86,87.64 -27.86,18.22 -60.07,35.04 -94.21,34.84 -14.52,-0.09 -28.63,-3.64 -41.55,-10.25 -8.11,-4.14 -15.29,8.08 -7.15,12.24 68.17,34.85 140.35,-13.82 192.49,-55.8 83.41,-67.17 155.06,-148.09 233.63,-220.63 81.4,-75.15 172.22,-149.72 279.79,-182.91 54.15,-16.71 108.14,-18.96 163.89,-10.33 72.64,11.25 147.64,15.52 220.29,1.95 79.68,-14.89 158.85,-56.25 196.1,-131.46 9.31,-18.8 16.33,-39.39 17.36,-60.48 3.25,-66.56 18.56,-135.14 45.27,-196.31 34.2,-78.32 92.21,-148.68 171.67,-183.64 15.17,-6.67 31.05,-10.54 46.71,-15.73 47.43,-15.69 93.92,-33.98 140.48,-52.06 27.73,-10.77 56.36,-19.97 83.3,-32.67 39.36,-18.57 76.59,-42.03 112.79,-66.05 52.69,-34.96 103.39,-73.02 151.84,-113.64 106.45,-89.23 209.29,-194.04 271.23,-319.91 13.7,-27.84 25.14,-56.8 33.4,-86.72 2.41,-8.81 -11.26,-12.57 -13.69,-3.77 z"
   id="path977" />
		</g>
	</g><g
   clip-path="url(#SVGID_2_)"
   id="g987"
   transform="translate(54.306172,3.97)">
		<g
   id="g985">
			<path
   class="st67"
   d="m 2900.25,-138.18 c -39.2,142.44 -138.12,264.69 -241.46,366.73 -48.36,47.76 -99.88,92.48 -154.17,133.38 -38.12,28.72 -77.71,56.75 -120.2,78.73 -22.2,11.48 -46.09,18.84 -69.9,26.25 -43.33,13.48 -87.23,25.05 -130.97,37.12 -32.6,9 -65.91,17.33 -97.84,28.63 -70.76,25.03 -128.75,79.49 -167.59,142.68 -35.49,57.73 -56.33,123.62 -67.37,190.18 -6.07,36.62 -4.93,70.01 -16.84,104.04 -26.76,76.49 -86.71,141.89 -163.55,169.41 -59.9,21.45 -125.18,20.1 -186.75,6.93 -33.27,-7.11 -64.8,-20.1 -97.96,-27.33 -22.1,-4.82 -44.89,-7.06 -67.49,-5.65 -88.01,5.49 -156.54,64.78 -208.25,131.62 -55.33,71.53 -95.63,152.8 -142.1,230.01 -18.89,31.4 -38.77,63.2 -64.4,89.63 -17.94,18.5 -40.71,35.76 -67.63,35.88 -12.72,0.06 -24.99,-3.74 -36.23,-9.51 -8.1,-4.16 -15.28,8.07 -7.15,12.24 25.68,13.17 53.62,15.15 79.93,2.6 28.02,-13.36 49.38,-38.47 67.61,-62.83 52.09,-69.59 88.81,-149.81 135.18,-223.13 45.33,-71.68 102.2,-149.33 184.86,-179.88 41.7,-15.42 86.49,-16.18 129.45,-5.56 35.32,8.73 69.02,21.9 104.99,28.46 32.95,6.02 66.63,8.8 100.08,6.42 96.72,-6.91 180.84,-59.88 229.21,-143.74 14.41,-24.98 26.89,-52.88 31.95,-81.45 3.49,-19.73 3.62,-40.04 6.5,-59.92 5.47,-37.79 13.9,-75.22 26.27,-111.37 30.5,-89.13 88.27,-171.72 174.13,-214.57 14.42,-7.2 29.2,-12.59 44.74,-16.82 33.61,-9.14 66.89,-19.75 100.51,-28.96 43.86,-12.02 87.84,-23.78 131.03,-38.07 41.34,-13.68 77.54,-33.71 113.75,-57.78 50.97,-33.88 99.33,-71.84 145.46,-112.03 110.44,-96.25 214.81,-209.49 279.18,-342.39 14.98,-30.94 27.56,-63.04 36.69,-96.2 2.42,-8.79 -11.25,-12.55 -13.67,-3.75 z"
   id="path983" />
		</g>
	</g>





















































</svg>
