<?xml version="1.0" encoding="UTF-8" standalone="no"?>
<svg
   xmlns:dc="http://purl.org/dc/elements/1.1/"
   xmlns:cc="http://creativecommons.org/ns#"
   xmlns:rdf="http://www.w3.org/1999/02/22-rdf-syntax-ns#"
   xmlns:svg="http://www.w3.org/2000/svg"
   xmlns="http://www.w3.org/2000/svg"
   xmlns:sodipodi="http://sodipodi.sourceforge.net/DTD/sodipodi-0.dtd"
   xmlns:inkscape="http://www.inkscape.org/namespaces/inkscape"
   width="2558"
   height="1658.1"
   viewBox="0 0 676.804 438.706"
   version="1.1"
   id="svg835"
   sodipodi:docname="join-line.svg"
   inkscape:version="1.0.1 (c497b03c, 2020-09-10)">
  <metadata
     id="metadata841">
    <rdf:RDF>
      <cc:Work
         rdf:about="">
        <dc:format>image/svg+xml</dc:format>
        <dc:type
           rdf:resource="http://purl.org/dc/dcmitype/StillImage" />
      </cc:Work>
    </rdf:RDF>
  </metadata>
  <defs
     id="defs839" />
  <sodipodi:namedview
     pagecolor="#ffffff"
     bordercolor="#666666"
     borderopacity="1"
     objecttolerance="10"
     gridtolerance="10"
     guidetolerance="10"
     inkscape:pageopacity="0"
     inkscape:pageshadow="2"
     inkscape:window-width="1440"
     inkscape:window-height="847"
     id="namedview837"
     showgrid="false"
     inkscape:zoom="0.24863174"
     inkscape:cx="1279"
     inkscape:cy="829.04999"
     inkscape:window-x="0"
     inkscape:window-y="25"
     inkscape:window-maximized="1"
     inkscape:current-layer="svg835" />
  <path
     class="st5"
     d="m 676.66697,379.227 c -33.327,-3.924 -55.478,4.21 -89.437,11.226 -12.42,2.567 -24.522,32.87 -35.724,38.135 -12.743,5.987 -28.342,9.056 -45.456,8.942 -4.016,-0.026 -8.297,-0.264 -12.615,-1.963 -6.096,-2.397 -11.062,-7.186 -15.523,-11.705 -23.932,-24.249 -46.186,-49.294 -66.516,-74.861 -6.842,-8.604 -13.722,-17.516 -23.281,-24.649 -8.305,-6.199 -17.997,-10.57 -27.509,-14.594 -23.545,-9.964 -47.37,-18.608 -71.175,-25.82 -6.406,-1.943 -13.005,-3.864 -18.99,-7.433 -8.993,-5.366 -14.99,-13.436 -20.703,-20.976 -21.394,-28.242 -46.09,-55.708 -73.459,-81.693 -16.145,-15.33 -34.47,-32.08 -37.581,-48.683 -1.503,-8.017 0.86,-14.92 1.328,-22.395 1.114,-17.769 -34.716,-39.515 -42.081996,-56.19 -1.71,-3.865 -1.887,-7.458 0.283,-10.664 3.216996,-4.758 0.296,-10.01 -3.852,-14.293 -4.15,-4.284 -10.171,-7.168 -16.166,-9.766 -11.277,-4.887 -23.257,-9.189 -36.045,-10.34 -14.03,-1.26 -28.085,1.344 -42.00999996,3.19"
     fill="none"
     stroke="#d884a6"
     stroke-width="2.344"
     stroke-miterlimit="10"
     id="path833" />
</svg>
