<?xml version="1.0" encoding="utf-8"?>
<!-- Generator: Adobe Illustrator 25.3.1, SVG Export Plug-In . SVG Version: 6.00 Build 0)  -->
<svg version="1.1" id="Layer_2_1_" xmlns="http://www.w3.org/2000/svg" xmlns:xlink="http://www.w3.org/1999/xlink" x="0px" y="0px"
	 viewBox="0 0 1920 1920" style="enable-background:new 0 0 1920 1920;" xml:space="preserve">
<style type="text/css">
	.st0{clip-path:url(#SVGID_2_);}
	.st1{fill:#ECE7DC;}
	.st2{fill:none;stroke:#FFFFFF;stroke-width:41;stroke-miterlimit:10;}
	.st3{fill:#548A59;}
	.st4{fill:#E5DF3F;}
	.st5{fill:#0059A6;}
	.st6{fill:#ED334D;}
	.st7{fill:#FFFFFF;}
	.st8{fill:#EE76A3;}
	.st9{fill:none;}
	.st10{font-family:'RockfordSans-Extrabold';}
	.st11{font-size:44.9px;}
	.st12{font-size:109.33px;}
</style>
<g id="Layer_1-2">
	<g>
		<defs>
			<rect id="SVGID_1_" width="1920" height="1920"/>
		</defs>
		<clipPath id="SVGID_2_">
			<use xlink:href="#SVGID_1_"  style="overflow:visible;"/>
		</clipPath>
		<g class="st0">
			<g>
				<rect class="st1" width="1920" height="1920"/>
				<line class="st2" x1="663.6" y1="1649.7" x2="2040.8" y2="999.2"/>
				<path class="st2" d="M292,756.2c-2.6,43.2,5.6,75.7,23.6,115.9l348,777.6L794.1,1927"/>
				<path class="st2" d="M2006,1780.1l-480.7-1075c-26.3-57.2-74.9-101.1-134.4-121.6L448.1,259l-15.2,44.5L306.5,674.4"/>
				<line class="st2" x1="537" y1="-22.1" x2="432.9" y2="303.5"/>
				<line class="st2" x1="1414.5" y1="-121.8" x2="1191.3" y2="514.5"/>
				<line class="st2" x1="448.1" y1="259" x2="-25.5" y2="86.9"/>
				<line class="st2" x1="463.1" y1="1201.6" x2="-75.3" y2="1463.8"/>
				<path class="st3" d="M481.6,461c3.4-10,13.4-16.3,23.9-14.9l28.4,3.7c13.6,2.4,27-5.6,31.3-18.7l8.2-24.5
					c4.9-14.8,21-22.7,35.8-17.6l703,245.1c76.5,28,105.5,57.9,146.1,128.1c0.4,0.6,0.7,1.2,1,1.9l88.7,184.1
					c1.8,3.8,2.8,7.9,2.8,12.1v58.3c0,10.2-5.6,19.7-14.6,24.6l-99.5,54.3c-12.5,6.8-17.9,21.9-12.5,35.1l15.7,38.5
					c5.7,13.9-0.7,29.9-14.4,36.1l-692.6,313.3c-13.9,6.3-30.3,0.3-36.8-13.5c-53.3-112.7-263.2-506.9-313.6-680.5
					c-8-27.5-6.7-56.9,3.5-83.7L481.6,461L481.6,461L481.6,461z"/>
				<path class="st2" d="M-6.1,880.4c0,0,169.7-96,236.3-134.9"/>
				<circle class="st2" cx="267" cy="716.6" r="46.9"/>
				<line class="st2" x1="226.6" y1="687.1" x2="-11.6" y2="588.5"/>
			</g>
		</g>
	</g>
</g>
<circle class="st4" cx="588.2" cy="857.4" r="16.5"/>
<circle class="st4" cx="636.8" cy="869.7" r="16.5"/>
<circle class="st4" cx="689.6" cy="888.9" r="16.5"/>
<circle class="st5" cx="814.7" cy="951.5" r="16.5"/>
<circle class="st5" cx="854.7" cy="975.3" r="16.5"/>
<circle class="st4" cx="888.8" cy="1004.2" r="16.5"/>
<circle class="st4" cx="917.5" cy="1033.2" r="16.5"/>
<circle class="st4" cx="977.1" cy="1112" r="16.5"/>
<circle class="st4" cx="1006.9" cy="1158" r="16.5"/>
<circle class="st4" cx="736.3" cy="913.4" r="16.5"/>
<circle class="st5" cx="776.3" cy="933.8" r="16.5"/>
<circle class="st6" cx="1019.5" cy="1269.3" r="16.5"/>
<circle class="st7" cx="1289.1" cy="1125.1" r="16.5"/>
<circle class="st7" cx="1334" cy="1057.6" r="16.5"/>
<circle class="st7" cx="1391.3" cy="1044.6" r="16.5"/>
<circle class="st7" cx="1351" cy="1007.3" r="16.5"/>
<circle class="st7" cx="1399.8" cy="995.7" r="16.5"/>
<circle class="st8" cx="1354.5" cy="963.7" r="16.5"/>
<circle class="st4" cx="1399.8" cy="942.2" r="16.5"/>
<circle class="st8" cx="1351" cy="913.4" r="16.5"/>
<circle class="st4" cx="1391.3" cy="900.4" r="16.5"/>
<circle class="st8" cx="1342.5" cy="872" r="16.5"/>
<circle class="st4" cx="1380.4" cy="858.5" r="16.5"/>
<circle class="st8" cx="1321.7" cy="827.2" r="16.5"/>
<circle class="st4" cx="1359.4" cy="819.5" r="16.5"/>
<circle class="st7" cx="1280.7" cy="791.6" r="16.5"/>
<circle class="st4" cx="1334" cy="774.7" r="16.5"/>
<circle class="st7" cx="1292.7" cy="740.9" r="16.5"/>
<circle class="st7" cx="1177.7" cy="737.5" r="16.5"/>
<circle class="st7" cx="1242.5" cy="763" r="16.5"/>
<g>
	<circle class="st4" cx="1543.2" cy="1607.3" r="27.9"/>
	<rect x="1589.2" y="1589.8" class="st9" width="269.1" height="45.6"/>
	<text transform="matrix(1 0 0 1 1595.9399 1623.2201)" class="st10 st11">Elm</text>
	<circle class="st6" cx="1047.4" cy="1696.8" r="27.9"/>
	<rect x="1093.5" y="1679.3" class="st9" width="269.1" height="45.6"/>
	<text transform="matrix(1 0 0 1 1100.21 1712.77)" class="st10 st11">Red maple</text>
	<circle class="st5" cx="1047.4" cy="1786.4" r="27.9"/>
	<rect x="1093.5" y="1768.8" class="st9" width="320.2" height="45.6"/>
	<text transform="matrix(1 0 0 1 1100.21 1802.3201)" class="st10 st11">Sweet chestnut</text>
	<circle class="st7" cx="1543.2" cy="1696.8" r="27.9"/>
	<rect x="1589.2" y="1679.3" class="st9" width="269.1" height="45.6"/>
	<text transform="matrix(1 0 0 1 1595.9399 1712.77)" class="st10 st11">Tulip tree</text>
	<circle class="st8" cx="1543.2" cy="1786.4" r="27.9"/>
	<rect x="1589.2" y="1768.8" class="st9" width="269.1" height="45.6"/>
	<text transform="matrix(1 0 0 1 1595.9399 1802.3201)" class="st10 st11">Sweetgum</text>
</g>
<text transform="matrix(1 0 0 1 854.7 205.62)" class="st3 st10 st12">Grant Thorold Park</text>
</svg>
