<?xml version="1.0" encoding="UTF-8"?>
<svg id="Layer_2" data-name="Layer 2" xmlns="http://www.w3.org/2000/svg" xmlns:xlink="http://www.w3.org/1999/xlink" viewBox="0 0 1920 1920">
  <defs>
    <style>
      .cls-1, .cls-2 {
        fill: none;
      }

      .cls-3 {
        letter-spacing: -.01em;
      }

      .cls-4 {
        clip-path: url(#clippath);
      }

      .cls-5 {
        fill: #ece7dc;
      }

      .cls-6 {
        fill: #548a59;
      }

      .cls-7 {
        fill: #fff;
        font-family: RockfordSans-Extrabold, 'Rockford Sans';
        font-size: 59.25px;
        font-weight: 700;
      }

      .cls-2 {
        stroke: #fff;
        stroke-miterlimit: 10;
        stroke-width: 41px;
      }
    </style>
    <clipPath id="clippath">
      <rect class="cls-1" width="1920" height="1920"/>
    </clipPath>
  </defs>
  <g id="Layer_1-2" data-name="Layer 1">
    <g class="cls-4">
      <rect class="cls-5" width="1920" height="1920"/>
      <line class="cls-2" x1="663.6" y1="1649.66" x2="2040.78" y2="999.24"/>
      <path class="cls-2" d="M292.04,756.19c-2.64,43.23,5.61,75.73,23.59,115.9l347.97,777.57,130.47,277.37"/>
      <path class="cls-2" d="M2005.99,1780.13l-480.69-1074.97c-26.35-57.16-74.91-101.07-134.42-121.57L448.08,258.95l-15.17,44.51-126.42,370.91"/>
      <line class="cls-2" x1="537" y1="-22.13" x2="432.91" y2="303.46"/>
      <line class="cls-2" x1="1414.52" y1="-121.83" x2="1191.33" y2="514.46"/>
      <line class="cls-2" x1="448.08" y1="258.95" x2="-25.47" y2="86.92"/>
      <line class="cls-2" x1="463.06" y1="1201.55" x2="-75.26" y2="1463.78"/>
      <path class="cls-6" d="M481.59,461.05c3.41-10.03,13.42-16.27,23.93-14.91l28.4,3.69c13.64,2.38,26.97-5.58,31.35-18.71l8.15-24.46c4.93-14.8,21.02-22.71,35.75-17.57l703.03,245.12c76.46,28.01,105.54,57.89,146.13,128.07,.36,.62,.69,1.25,1,1.9l88.65,184.13c1.82,3.79,2.77,7.93,2.77,12.14v58.29c0,10.24-5.59,19.66-14.58,24.56l-99.53,54.29c-12.5,6.82-17.89,21.94-12.5,35.13l15.71,38.48c5.69,13.93-.66,29.86-14.37,36.06l-692.57,313.31c-13.92,6.3-30.3,.26-36.83-13.54-53.26-112.68-263.17-506.94-313.64-680.5-8.01-27.53-6.71-56.92,3.46-83.73l95.7-281.74Z"/>
      <path class="cls-2" d="M-6.14,880.37s169.74-95.96,236.28-134.91"/>
      <circle class="cls-2" cx="267.03" cy="716.56" r="46.87"/>
      <line class="cls-2" x1="226.59" y1="687.08" x2="-11.61" y2="588.51"/>
      <text class="cls-7" transform="translate(687.58 955.29)"><tspan x="0" y="0">G</tspan><tspan class="cls-3" x="45.21" y="0">r</tspan><tspan x="67.67" y="0">and Tho</tspan><tspan class="cls-3" x="292.18" y="0">r</tspan><tspan x="314.64" y="0">old Park</tspan></text>
    </g>
  </g>
</svg>