<svg xmlns="http://www.w3.org/2000/svg" width="2750.117" height="1660.105" viewBox="0 0 727.635 439.236">
  <path class="st33" d="M.894.701c20.698 26.377 42.09 54.113 47.445 80.206 2.53 12.324 1.304 23.656 3.008 35.782 1.937 13.793 7.713 28.567 16.825 43.053 2.14 3.4 4.585 6.92 8.218 9.748 5.127 3.992 11.565 5.842 17.526 7.395 31.97 8.329 63.69 14.84 94.813 19.46 10.472 1.555 21.212 2.987 31.946 7.577 9.324 3.988 17.923 10.06 26.149 16.15 20.365 15.074 39.825 31.041 58.129 47.697 4.926 4.482 9.937 9.139 15.94 12.457 9.023 4.984 18.628 6.088 27.658 7.21 33.819 4.196 68.757 11.583 103.925 21.976 20.746 6.13 43.776 13.406 58.667 7.831 7.19-2.69 11.453-8.117 17.171-12.215 13.594-9.745 49.84 9.935 67.03 7.94 3.987-.463 6.947-2.09 8.363-5.522 2.1-5.088 7.832-5.207 13.438-3.805 5.61 1.405 11.084 5.093 16.317 8.9 9.845 7.163 19.595 15.214 27.252 25.512 8.403 11.3 60.024 87.958 65.89 100.708" fill="none" stroke="#19953a" stroke-width="2.272" stroke-miterlimit="10"/>
</svg>
