<svg xmlns="http://www.w3.org/2000/svg" width="299.53" height="187.89" viewBox="0 0 79.251 49.713">
  <path class="st3" fill="#19953a" d="M.471 8.528L68.271 0l2.315 21.14L0 27.096z"/>
  <path class="st3" fill="#19953a" d="M9.803 30.189l65.508-13.44 3.94 20.843-64.127 12.12z"/>
  <g fill="#fff">
    <path class="st7" d="M16.801 21.736c-.087.312-.344.447-.63.463-.664.013-1.913-.048-2.95.172-.532.119-1.69.322-2.071.317-.561 0-2.919.728-2.98.175-.047-.3-.15-1.09-.264-1.593-.122-.548-.196-2.752-.249-3.23-.026-.241-.204-1.297-.31-2.268-.02-.196-.116-.381-.14-.59-.024-.21-.018-.437-.071-.643-.132-.651-.291-1.286-.304-1.678.034-.108.11-.238.362-.296.339-.082.701-.093 1.392-.167l1.481-.026c.122.548.387 2.564.453 2.89.053.206.08.719.17 1.404.15 1.241.39 2.471.542 3.424.505-.1.981-.17 1.27-.154.624.024 1.148-.172 1.595-.22 1.048-.113 1.99-.216 2.437-.16l.119.804c.069.672.222 1.095.148 1.376z"/>
    <path class="st7" d="M26.599 21.164c-.508.193-2 .537-2.435.056-.259-.577-.333-.829-.476-1.313-.413.106-.918.19-1.532.26l-1.947.349c-.045.293-.1.6-.154.82-.203.78-.748.778-1.428.794-.347.008-1.014.005-1.397-.03-.397-.018-.606-.007-.477-.613.284-1.561.995-4.472 1.067-4.935.063-.52.778-3.146.92-3.767a17.21 17.21 0 00.246-1.36c.059-.31.405-.741.736-.762 1.516-.122 2.992-.617 3.23.026a108.09 108.09 0 001.638 4.032c.73 1.678 1.196 2.628 1.262 2.816.149.391.844 2.301 1.02 2.796.131.363.03.707-.273.831zm-3.781-3.54a26.42 26.42 0 00-.432-1.164c-.09-.278-.616-1.887-1.037-3.099-.148 1.273-.296 2.82-.484 3.75-.053.338-.14.666-.193.99.418-.062.775-.117.907-.146.254-.059.725-.186 1.239-.331zM33.168 11.068l.066.886c-.442.124-1.368.09-2.357.333l-.355.085c.003.15.019.302.03.405.047.434.156.876.27 1.638.198 1.524.235 2.428.47 4.024.111.73.215 1.265.23 1.4.035.314.117.502-.322.64-.527.164-1.651.272-2.175.328-.48.053-.842-.212-.89-.508a38.645 38.645 0 00-.243-1.381c-.105-.548-.277-2.953-.33-3.432-.032-.283-.212-1.37-.395-2.503l-.283.032c-.6.05-1.362.148-2.05.225-.363-.672-.535-2.395-.138-2.651 1.323-.22 2.225-.305 2.741-.421.355-.085 1.508-.33 2.024-.328 1.027-.021 2.22-.35 2.842-.463.296-.064.606.01.743.296.133.24.045.707.122 1.395z"/>
    <path class="st7" d="M43.265 18.87c-.09.283-.363.418-.68.44-.696.015-2.016-.022-3.13.19-.548.106-1.797.333-2.175.328-.606.005-3.13.751-3.191.198-.048-.299-.15-1.09-.251-1.592-.135-.546-.225-2.747-.278-3.226-.027-.24-.217-1.294-.323-2.267-.021-.196-.132-.516-.156-.725-.037-.328-.016-.558-.053-.767-.135-.546-.15-1.09-.154-1.408.9-.236 2.162-.328 2.739-.452.402-.075 1.614-.344 2.201-.363 1.135-.018 2.416-.355 3.114-.476.297-.064.638.02.789.278.135.259.034.587.111 1.29l.06.842c-.48.159-2.11.23-3.177.455-.532.12-1.476.222-2.296.328.015.27.04.51.071.643.037.21.016.559.09 1.246l.003.03c.447-.064.762-.098 1.071-.178.857-.185 1.16-.217 2.403-.476.637-.13.722.238.756.553l.233 1.58c-.902.325-1.58.232-2.635.426-.37.071-.873.187-1.54.336.066.463.146.923.204 1.31.682-.12 1.323-.22 1.685-.231.662-.042 1.193-.177 1.656-.227 1.122-.122 2.112-.23 2.601-.18l.12.669c.185.677.264 1.122.132 1.426zM51.012 17.825c-.844.455-1.882.934-3.366 1.095-1.302.143-3.217-.042-3.895-1.815-.343-.918-.412-1.56-.378-2.201l1.73-.235c.773-.008 1.337.034 1.416.754.098.897.415 1.439 1.611 1.307.733-.08.987-.683.926-1.239-.076-.703-.865-.981-2.14-1.569-1.217-.457-2.474-.73-2.884-1.29-.532-.715-.714-1.408-.8-2.186-.205-1.887 1.66-3.241 3.832-3.48 2.754-.301 4.506.9 4.773 2.371.077.416.08.733.074 1.098l-1.733.357c-.733.08-1.029-.267-1.093-.849-.066-.476-.563-1.273-1.415-1.177-.659.071-1.262.502-1.18 1.251.06.553.598 1.04 1.865 1.265 2.53.42 3.16 1.032 3.67 1.976.325.63.431 1.437.41 1.818-.037 1.172-.45 2.233-1.423 2.749zM60.698 8.054l.066.886c-.442.125-1.368.09-2.357.334l-.355.084c.003.151.019.302.03.405.047.434.155.876.27 1.638.198 1.524.235 2.429.47 4.024.111.73.214 1.265.228 1.4.034.315.116.503-.323.64-.527.164-1.651.273-2.175.328-.479.053-.841-.211-.889-.508a38.645 38.645 0 00-.243-1.38c-.106-.549-.278-2.954-.331-3.433-.032-.283-.212-1.37-.394-2.502l-.286.031c-.6.05-1.363.148-2.05.225-.363-.672-.535-2.394-.138-2.651 1.323-.22 2.222-.304 2.74-.42.355-.085 1.509-.331 2.025-.329 1.027-.02 2.22-.349 2.842-.463.296-.063.605.01.743.297.135.24.05.703.127 1.394z"/>
  </g>
  <g fill="#fff">
    <path class="st7" d="M34.081 40.54c.124.65-.979.904-1.823 1.063-.368.085-.712.212-1.003-.116-.182-.241-1.286-1.045-1.619-1.426-.37-.421-2.093-1.826-2.71-2.34.146.601.342 1.162.456 1.601.246.98.571 2.453.598 2.599.066.354-1.784.613-2.776.801-.444.085-.352-.24-.423-.532-.085-.29-.21-.865-.363-1.357-.161-.537-.936-5.125-1.026-5.598-.095-.503-.434-1.16-.614-2.353.225-.518 1.146-.584 2.013-.947.469-.196 1-.22 1.212.093.278.423 1.514 2.09 1.752 2.381.116.132 1.786 1.746 2.918 2.958l-.243-1.288c-.088-.458-1.027-3.652-1.32-5.115.367-.407 1.074-.555 1.897-.74.484-.106.817.028.886.399.092.49.555 2.532.65 2.881.072.217.424 2.326.94 3.913.468 1.46.56 2.93.598 3.122zM44.159 38.849c-.069.288-.33.444-.643.49-.69.068-2.013.134-3.106.433-.54.148-1.765.471-2.143.498-.604.053-3.062.992-3.165.444-.071-.294-.233-1.074-.373-1.569-.177-.534-.436-2.722-.526-3.196-.045-.236-.318-1.273-.5-2.236-.037-.193-.172-.502-.212-.712-.06-.325-.058-.555-.114-.759-.177-.534-.233-1.074-.262-1.392.879-.304 2.13-.494 2.694-.661.394-.106 1.582-.468 2.167-.532 1.13-.106 2.38-.542 3.066-.717.291-.085.638-.029.807.214.154.247.08.583.212 1.278l.127.834c-.469.196-2.088.394-3.133.698-.521.16-1.452.336-2.265.506.035.27.08.505.12.635.052.203.058.555.187 1.235l.006.03c.441-.099.75-.157 1.053-.26.84-.251 1.137-.307 2.357-.661.624-.18.738.182.799.492l.355 1.558c-.876.394-1.559.355-2.593.627-.365.1-.858.254-1.508.453.1.455.216.91.304 1.29.672-.171 1.302-.322 1.664-.359.656-.093 1.175-.267 1.635-.355 1.109-.209 2.088-.394 2.58-.38l.17.656c.237.666.348 1.106.24 1.418zM56.12 26.887c.003.505.011 2.252.03 2.662.008.198-.111 1.6-.175 2.884-.084 1.41-.188 3.958-.198 4.143.029.638-1.373.521-2.63.757-.267.05-.58-.151-.707-.418-.11-.27-.336-.81-.574-1.254-.259-.487-1.473-3.263-1.688-3.742-.013.339-.02.694-.016 1.045.019 1.392-.172 4.522-.169 4.707 0 .643-1.471.646-2.744.887-.267.05-.63-.249-.772-.514-.143-.264-.352-.807-.574-1.254-.247-.49-1.487-2.754-1.675-3.193-.17-.413-1.381-2.926-1.987-4.268-.252-.519-.12-.545.225-.672.299-.119 1.518-.317 1.81-.402.55-.167 1.07-.326 1.351.341.201.498.561 1.26.662 1.561.095.257.373.834.762 1.68a47.7 47.7 0 00.85 1.741c.057-.426.12-.82.145-1.1.013-.172.018-.8.023-1.493-.007-.534.085-1.09.064-1.606a9.673 9.673 0 01.045-1.22c.087-.92 1.103-.973 1.696-1.087.532-.1.839-.264 1.177.392.244.476.593 1.36.741 1.653.122.239.947 1.691 1.395 2.588.015-.233.013-.492.023-.77.022-.54-.098-1.974-.103-2.495-.018-.746-.09-.963-.06-1.537.19-.94 2.074-.945 2.492-.916.264.027.58.395.582.9zM64.751 34.758c-.807.522-1.804 1.077-3.27 1.355-1.288.243-3.21.209-4.024-1.508-.413-.886-.532-1.524-.548-2.164l1.71-.368c.77-.069 1.336-.069 1.47.643.167.889.527 1.402 1.71 1.18.725-.138.928-.76.825-1.305-.132-.695-.939-.91-2.257-1.397-1.249-.362-2.521-.534-2.974-1.063-.587-.672-.82-1.347-.965-2.117-.352-1.865 1.402-3.36 3.548-3.765 2.722-.513 4.564.548 4.942 1.992.109.408.138.725.159 1.088l-1.701.49c-.725.137-1.048-.186-1.157-.763-.103-.47-.661-1.225-1.502-1.063-.651.124-1.22.598-1.08 1.338.103.548.677.99 1.958 1.117 2.556.222 3.228.783 3.813 1.685.375.604.54 1.4.55 1.781.053 1.164-.275 2.254-1.207 2.844z"/>
  </g>
</svg>
