<svg id="Layer_1" data-name="Layer 1" xmlns="http://www.w3.org/2000/svg" viewBox="0 0 160 108.31" width="160" height="108.31" preserveAspectRatio="none slice">
  <defs>
    <clipPath id="clip-path">
      <path d="M0 0h160v108.31H0z" fill="none"/>
    </clipPath>
    <style>
      .cls-2{clip-path:url(#clip-path)}.cls-3{fill:currentColor}.cls-4{fill:#333}
    </style>
  </defs>
  <g class="cls-2">
    <path class="cls-3" d="M145.57.06L2 30.91a2.49 2.49 0 00-1.9 2.95l15.66 74.45 15.78-24.63 125.93-27.05a2.5 2.5 0 001.9-3L148.5 2a2.47 2.47 0 00-2.93-1.94"/>
    <path class="cls-4" d="M22.85 60.8L18.48 40l-4.63 1 4.5 21.38c.89 4.26 3.38 5.93 7.47 5a8.62 8.62 0 002.18-.63l-.88-4.18a5.14 5.14 0 01-1.36.46c-1.7.36-2.49-.32-2.89-2.23M43 57.53a6.28 6.28 0 01-8.6 1.85 6.33 6.33 0 01-2.63-4 6.24 6.24 0 01.78-4.74 6.21 6.21 0 018.61-1.85 6 6 0 012.65 4 6.22 6.22 0 01-.81 4.74m-7.4-13.91a10.72 10.72 0 00-6.9 4.63 10.24 10.24 0 00-1.52 8.07 10.13 10.13 0 004.64 6.75A10.6 10.6 0 0040 64.46a10.69 10.69 0 006.9-4.62A10.66 10.66 0 0043.74 45a10.64 10.64 0 00-8.16-1.39m24.47-.84a6.64 6.64 0 015.4 1.09l2.22-3.62a10.32 10.32 0 00-8.51-1.72 10.71 10.71 0 00-6.9 4.62 10.19 10.19 0 00-1.49 8.07A10.2 10.2 0 0055.39 58a10.56 10.56 0 008.15 1.34 10.43 10.43 0 007.09-5.07l-3.49-2.39a6.67 6.67 0 01-4.49 3.21 5.9 5.9 0 01-4.65-.82 6.73 6.73 0 01-1.85-8.82 6 6 0 013.91-2.68M86 48.17a5.89 5.89 0 01-3.84 2.62 5.72 5.72 0 01-4.5-.83 6.64 6.64 0 01-1.8-8.59 5.72 5.72 0 013.77-2.6 5.84 5.84 0 014.57.81 6.3 6.3 0 011.8 8.59m-1-11.58c-1.06-1.77-3.7-2.63-6.9-1.94a9.45 9.45 0 00-6.33 4.46A10.41 10.41 0 0070.55 47a10.47 10.47 0 004.32 6.74 9.48 9.48 0 007.56 1.43c3.21-.69 5.28-2.56 5.53-4.61l.6 2.85 4.63-1-4.13-19.66-4.64 1zm15 7.63l-4.34-20.76-4.64 1 4.5 21.38c.89 4.25 3.38 5.92 7.48 5a8.67 8.67 0 002.15-.71l-.88-4.13a4.82 4.82 0 01-1.36.45c-1.7.37-2.49-.32-2.89-2.23M104 21.35a2.83 2.83 0 103.32 2.18 2.79 2.79 0 00-3.32-2.18"/>
  </g>
  <path class="cls-4" d="M107.44 49.35l4.63-.99-4.14-19.67-4.63 1 4.14 19.66z"/>
  <g class="cls-2">
    <path class="cls-4" d="M115.65 19.17l-4.63 1 1.58 7.53-2.43.52.9 4.26 2.43-.53 2 9.29c.94 4.45 3.49 6.22 7.7 5.32a10.75 10.75 0 002.34-.75l-.88-4.17a7.23 7.23 0 01-1.59.5c-1.69.37-2.59-.26-3-2.4L118.13 31l4.29-.92-.9-4.25-4.28.92zm23.21 2.88l-2.25 16-8.83-13.6-4.68 1 12.44 18.65-.2 1.51a3.48 3.48 0 01-.77 1.92 3.13 3.13 0 01-1.61.8 7.11 7.11 0 01-2.23.15l.86 4.09a8.12 8.12 0 002.35-.17 6.68 6.68 0 004.32-2.64 10.34 10.34 0 001.35-4l3.92-24.74z"/>
    <path class="cls-3" d="M37.21 95.59l-.7.16-.27-1.24.71-.16-.46-2.19 1.35-.29.46 2.19 1.26-.26.26 1.2-1.25.26.53 2.57c.14.62.4.8.89.7a2.88 2.88 0 00.47-.15l.25 1.22a3.63 3.63 0 01-.68.22c-1.23.26-2-.26-2.25-1.56zm4.43 3.75L40 91.41l1.34-.29.63 3a1.81 1.81 0 011.46-1.27A2.06 2.06 0 0146 94.7l.75 3.55-1.34.29-.71-3.36a1.14 1.14 0 00-1.41-1 1.28 1.28 0 00-1 1.6l.7 3.31zm9.71-5.72a1.13 1.13 0 00-.61-.79 1.48 1.48 0 00-1.08-.16 1.77 1.77 0 00-1 .6 1.23 1.23 0 00-.32 1zm-4.27 1.56a3.1 3.1 0 01.37-2.38 3 3 0 012-1.29 2.65 2.65 0 012.19.4 2.92 2.92 0 011.22 1.89 4.8 4.8 0 01.08.48l-4.42 1a1.59 1.59 0 002 1.13 2.1 2.1 0 001.39-1l1 .62a3.23 3.23 0 01-2.17 1.54 3 3 0 01-2.34-.35 2.88 2.88 0 01-1.29-2zm13.82-1.66a1.92 1.92 0 00-.52-2.52 1.6 1.6 0 00-1.3-.24 1.75 1.75 0 00-1.14.76 1.82 1.82 0 00-.23 1.36 1.76 1.76 0 00.76 1.12 1.71 1.71 0 001.34.23 1.6 1.6 0 001.09-.75m-3.37 4.71l-1.67-7.94 1.35-.25.17.83c.08-.6.68-1.14 1.62-1.34a2.69 2.69 0 012.19.43 3 3 0 011.27 2 3 3 0 01-.37 2.32 2.8 2.8 0 01-1.84 1.29 1.84 1.84 0 01-2-.57l.64 3zm10.29-6.12a1.91 1.91 0 00-.54-2.57 1.67 1.67 0 00-1.36-.25 1.75 1.75 0 00-1.15.79 1.94 1.94 0 00.54 2.57 1.84 1.84 0 002.51-.54m-4.62-.36a3 3 0 01.45-2.35 3.27 3.27 0 014.39-1 3.11 3.11 0 01.96 4.38 3.25 3.25 0 01-4.39.94 3 3 0 01-1.36-2"/>
  </g>
  <path class="cls-3" d="M72.03 92.82l-3.1-5.33 1.27-.28 1.93 3.32.4-3.82 1.03-.22 1.9 3.33.43-3.83 1.28-.27-.7 6.14-1.04.22-1.94-3.37-.41 3.88-1.05.23z"/>
  <g class="cls-2">
    <path class="cls-3" d="M82.26 87a1.15 1.15 0 00-.61-.79 1.5 1.5 0 00-1.08-.21 1.8 1.8 0 00-1 .6 1.31 1.31 0 00-.32 1zM78 88.54a3 3 0 01.37-2.38 3 3 0 012-1.29 2.65 2.65 0 012.19.4 2.88 2.88 0 011.22 1.89 4.8 4.8 0 01.08.48l-4.41 1a1.59 1.59 0 002 1.14 2.2 2.2 0 001.39-1l1 .62a3.25 3.25 0 01-2.18 1.54 3.09 3.09 0 01-2.34-.34 2.91 2.91 0 01-1.28-2zM85.32 90l-1.21-5.74 1.35-.29.17.86a1.81 1.81 0 011.49-1.33 1.68 1.68 0 01.41 0l.28 1.32a3 3 0 00-.57.06A1.47 1.47 0 0086 86.66l.63 3zm10.22-3.89a1.82 1.82 0 00.24-1.39 1.77 1.77 0 00-.78-1.17 1.8 1.8 0 00-2.51.54 1.93 1.93 0 00.51 2.56 1.72 1.72 0 001.37.24 1.76 1.76 0 001.14-.78m-4.62-.35a3 3 0 01.45-2.36 3.25 3.25 0 014.39-.94 3.1 3.1 0 01.91 4.32 3.27 3.27 0 01-4.39 1 3 3 0 01-1.36-2M99.18 87l-.94-4.49-.93.19-.26-1.24.93-.19-.06-.27a1.93 1.93 0 01.26-1.83 2.28 2.28 0 011.33-.68 5.12 5.12 0 01.59-.08l.25 1.18a1.59 1.59 0 00-.53 0c-.51.11-.7.39-.57 1l.08.39 1.07-.23.26 1.24-1.07.23.94 4.49zm9.89-7.29l-.65 1.05a1.92 1.92 0 00-1.57-.31 1.67 1.67 0 00-1.14.78 1.81 1.81 0 00-.23 1.39 1.84 1.84 0 00.77 1.18 1.69 1.69 0 001.35.24 1.93 1.93 0 001.31-.93l1 .69a3 3 0 01-2.06 1.48 3.08 3.08 0 01-2.38-.39 3.14 3.14 0 01-.91-4.34 3.06 3.06 0 012-1.34 3 3 0 012.48.5m5.62 2.29a1.86 1.86 0 00.24-1.39 1.79 1.79 0 00-.78-1.17 1.67 1.67 0 00-1.36-.25 1.71 1.71 0 00-1.15.79 1.93 1.93 0 00.54 2.56 1.84 1.84 0 002.51-.54m-4.66-.35a3 3 0 01.45-2.35 3.27 3.27 0 014.39-1 3 3 0 011.36 2 3 3 0 01-.45 2.36 3.25 3.25 0 01-4.39.94 3 3 0 01-1.36-2m7.84 1.4l-1.21-5.73L118 77l.17.82a1.65 1.65 0 011.34-1.26 1.59 1.59 0 011.8.66 1.9 1.9 0 011.65-1.4c1.25-.27 2.15.45 2.45 1.87l.75 3.55-1.35.29-.71-3.35c-.16-.79-.64-1.2-1.28-1.06a1.22 1.22 0 00-.85 1.57l.7 3.3-1.34.29-.71-3.36c-.17-.78-.64-1.19-1.28-1.05a1.23 1.23 0 00-.83 1.57l.7 3.3zm9.48-2.06l-1.21-5.74 1.34-.29.17.82a1.67 1.67 0 011.38-1.26 1.59 1.59 0 011.8.66 1.91 1.91 0 011.65-1.4c1.25-.27 2.15.45 2.45 1.88l.75 3.55-1.35.29-.71-3.36c-.17-.78-.64-1.19-1.28-1.06a1.23 1.23 0 00-.85 1.58l.7 3.3-1.34.29-.71-3.36c-.17-.79-.64-1.2-1.28-1.06a1.24 1.24 0 00-.83 1.57l.7 3.3zm8.2-7.76l1.35-.29.71 3.36a1.14 1.14 0 001.42 1 1.27 1.27 0 001-1.59l-.7-3.3 1.35-.29 1.21 5.73-1.35.29-.17-.79a1.8 1.8 0 01-1.45 1.26 2.07 2.07 0 01-2.58-1.85zm7.48 4.39l-1.2-5.74 1.34-.29.17.82a1.88 1.88 0 011.52-1.3 2.09 2.09 0 012.64 1.84l.75 3.55-1.36.29-.7-3.36a1.17 1.17 0 00-1.48-1 1.31 1.31 0 00-1 1.62l.69 3.3zm6.3-1.36l-1.2-5.73 1.35-.29 1.21 5.73zM147.65 69a.82.82 0 01.64-1 .82.82 0 01.34 1.61.82.82 0 01-1-.63m3.67 2.11l-.71.15-.26-1.24.71-.15-.47-2.2 1.36-.29.46 2.2 1.25-.27.26 1.24-1.25.27.54 2.56c.13.62.39.81.89.7a2.07 2.07 0 00.46-.15l.26 1.22a3.3 3.3 0 01-.69.22 1.7 1.7 0 01-2.24-1.55zm4.97 4.83a2.15 2.15 0 00.65 0 1 1 0 00.47-.24 1.05 1.05 0 00.22-.56l.06-.44L154 69.2l1.37-.29 2.57 4 .66-4.67 1.36-.29-1.14 7.22a3.16 3.16 0 01-.39 1.15 2 2 0 01-1.27.77 2.38 2.38 0 01-.68.06z"/>
  </g>
</svg>
