<?xml version="1.0" encoding="UTF-8" standalone="no"?>
<svg
   xmlns:dc="http://purl.org/dc/elements/1.1/"
   xmlns:cc="http://creativecommons.org/ns#"
   xmlns:rdf="http://www.w3.org/1999/02/22-rdf-syntax-ns#"
   xmlns:svg="http://www.w3.org/2000/svg"
   xmlns="http://www.w3.org/2000/svg"
   width="49.143261mm"
   height="50.13055mm"
   viewBox="0 0 49.143261 50.13055"
   version="1.1"
   id="svg2670">
  <defs
     id="defs2664" />
  <metadata
     id="metadata2667">
    <rdf:RDF>
      <cc:Work
         rdf:about="">
        <dc:format>image/svg+xml</dc:format>
        <dc:type
           rdf:resource="http://purl.org/dc/dcmitype/StillImage" />
        <dc:title></dc:title>
      </cc:Work>
    </rdf:RDF>
  </metadata>
  <g
     id="layer1"
     transform="translate(-49.511702,-96.643057)">
    <polygon
       class="st35"
       points="-899.85,3570.14 -731.06,3494.48 -731.06,3629.84 "
       id="polygon534"
       style="fill:none;stroke:#e1dd19;stroke-width:3.339;stroke-linecap:round;stroke-linejoin:round;stroke-miterlimit:10"
       transform="matrix(0.26458333,0,0,0.26458333,291.63953,-827.4964)" />
    <polyline
       class="st35"
       points="-789.43,3587.66 -731.06,3494.48 -838.36,3591.89 -838.36,3635.72 -804.88,3603.73 "
       id="polyline536"
       style="fill:none;stroke:#e1dd19;stroke-width:3.339;stroke-linecap:round;stroke-linejoin:round;stroke-miterlimit:10"
       transform="matrix(0.26458333,0,0,0.26458333,291.63953,-827.4964)" />
    <path
       class="st36"
       d="m 50.000862,141.6115 c -0.148167,0.62971 0.08202,1.29117 0.402167,1.85473 1.561041,2.7305 5.513916,3.67506 8.22325,2.07698 2.709333,-1.59809 3.823229,-5.35781 2.566458,-8.24177 -0.616479,-1.41817 -1.849438,-2.67494 -3.386667,-2.86279 -1.534583,-0.18786 -3.227916,1.05039 -3.132666,2.59556 0.07144,1.16152 1.050395,2.07962 2.106083,2.57175 2.018771,0.94191 4.429125,0.73554 6.498166,-0.0873 2.069042,-0.8255 3.860271,-2.21192 5.572125,-3.64067"
       id="path538"
       style="fill:none;stroke:#ffffff;stroke-width:0.883444;stroke-linecap:round;stroke-linejoin:round;stroke-miterlimit:10" />
  </g>
</svg>
