<svg height='300px' width='300px'  fill="#ffffff" xmlns="http://www.w3.org/2000/svg" xmlns:xlink="http://www.w3.org/1999/xlink" version="1.1" x="0px" y="0px" viewBox="0 0 100 100" enable-background="new 0 0 100 100" xml:space="preserve"><g><path fill="#ffffff" d="M93.354,47.712c-0.033-3.123-2.376-5.653-5.25-5.653c-0.618,0-1.202,0.138-1.753,0.353   c-0.098-2.771-2.398-5-5.231-5c-0.878,0-1.694,0.234-2.422,0.612c-0.899-1.582-2.596-2.666-4.562-2.666   c-0.611,0-1.188,0.124-1.734,0.313v-7.995c0-2.855-2.354-5.178-5.25-5.178c-2.895,0-5.25,2.323-5.25,5.178v21.332   c-2.992,0.141-5.347,1.824-6.014,4.538c-0.878,3.567-0.59,7.595,0.858,11.968c1.088,3.291,3.619,6.6,7.738,10.114   c0.331,0.282,0.737,0.421,1.14,0.421c0.497,0,0.991-0.209,1.338-0.617c0.631-0.738,0.542-1.848-0.195-2.477   c-3.565-3.044-5.814-5.918-6.685-8.545c-1.253-3.788-1.508-7.068-0.78-10.024c0.297-1.208,1.38-1.764,2.6-1.868v3.154   c0,0.971,0.788,1.758,1.758,1.758c0.971,0,1.758-0.787,1.758-1.758V27.676c0-0.917,0.778-1.663,1.734-1.663   c0.957,0,1.735,0.746,1.735,1.663v19.885c0,0.971,0.787,1.758,1.757,1.758c0.971,0,1.758-0.787,1.758-1.758v-7.024   c0-0.918,0.778-1.664,1.734-1.664s1.734,0.746,1.734,1.664v2.053v4.972v0.96c0,0.97,0.787,1.757,1.758,1.757   c0.97,0,1.757-0.787,1.757-1.757v-0.96v-4.972c0-0.917,0.778-1.663,1.734-1.663s1.734,0.746,1.734,1.663v7.518   c0,0.971,0.787,1.758,1.758,1.758c0.97,0,1.757-0.787,1.757-1.758V47.78c0-1.196,0.795-2.205,1.735-2.205s1.734,1.009,1.734,2.205   c0,0.043,0.001,0.086,0.005,0.129c0.012,0.15,1.046,15.077-3.791,25.651c-0.404,0.883-0.015,1.926,0.867,2.329   c0.237,0.108,0.485,0.159,0.73,0.159c0.667,0,1.304-0.381,1.6-1.026C94.347,63.88,93.44,48.954,93.354,47.712z"></path><path fill="#ffffff" d="M54.618,30.862c0.015-0.035,0.021-0.072,0.033-0.108c0.025-0.072,0.052-0.144,0.067-0.22   c0.022-0.113,0.035-0.229,0.035-0.347s-0.013-0.234-0.035-0.348c-0.015-0.069-0.039-0.134-0.061-0.2   c-0.015-0.043-0.023-0.087-0.04-0.129c-0.031-0.073-0.072-0.14-0.111-0.208c-0.019-0.031-0.031-0.064-0.051-0.093   c-0.064-0.095-0.137-0.184-0.218-0.265l-3.908-3.906c-0.687-0.687-1.799-0.687-2.485,0s-0.687,1.8,0,2.485l0.906,0.906H12.767   c-0.97,0-1.757,0.787-1.757,1.757c0,0.971,0.787,1.758,1.757,1.758h35.986l-0.908,0.909c-0.687,0.687-0.687,1.799,0,2.485   c0.343,0.343,0.793,0.515,1.242,0.515c0.45,0,0.899-0.171,1.243-0.515l3.908-3.909c0.081-0.081,0.153-0.169,0.218-0.265   c0.018-0.026,0.028-0.055,0.045-0.082C54.543,31.011,54.586,30.939,54.618,30.862z"></path><path fill="#ffffff" d="M49.087,38.863H13.102l0.908-0.909c0.687-0.687,0.687-1.799,0-2.485s-1.799-0.687-2.485,0l-3.909,3.909   c-0.08,0.081-0.153,0.17-0.217,0.265c-0.019,0.027-0.03,0.057-0.047,0.085c-0.041,0.07-0.084,0.141-0.115,0.217   c-0.016,0.036-0.022,0.074-0.034,0.111c-0.025,0.071-0.052,0.142-0.066,0.217c-0.023,0.114-0.035,0.23-0.035,0.348   c0,0.118,0.012,0.234,0.035,0.348c0.014,0.067,0.038,0.129,0.059,0.193c0.015,0.045,0.024,0.091,0.042,0.135   c0.029,0.07,0.068,0.134,0.106,0.199c0.02,0.034,0.034,0.07,0.056,0.103c0.063,0.095,0.137,0.184,0.217,0.264l3.909,3.907   c0.343,0.343,0.793,0.515,1.242,0.515c0.45,0,0.899-0.171,1.243-0.515c0.687-0.687,0.687-1.8,0-2.485l-0.907-0.907h35.984   c0.971,0,1.758-0.787,1.758-1.757S50.058,38.863,49.087,38.863z"></path></g></svg>