<?xml version="1.0" encoding="utf-8"?>
<!-- Generator: Adobe Illustrator 19.2.1, SVG Export Plug-In . SVG Version: 6.00 Build 0)  -->
<svg version="1.1" id="layer" xmlns="http://www.w3.org/2000/svg" xmlns:xlink="http://www.w3.org/1999/xlink" x="0px" y="0px"
	 viewBox="0 0 652 652" style="enable-background:new 0 0 652 652;" xml:space="preserve">
<style type="text/css">
	.st0{fill:#00A94F;}
</style>
<path class="st0" d="M176.5,272.8c-5.3,0-8.6,5.1-8.6,10.9h16.9C184.9,278.5,182,272.8,176.5,272.8z M167.8,288.2
	c0,7,3.9,13.2,11.9,13.2c3,0,6.4-1.2,8.5-2.6l1.7,3.9c-2.6,2.2-7.1,3.7-11.3,3.7c-11.2,0-16.7-9.4-16.7-19.8
	c0-10.6,5.9-18.5,14.6-18.5c9.3,0,14.3,7.5,14.3,18.9v1.3H167.8z M151.5,305.5v-22.8c0-4.6-0.8-9.5-6.5-9.5c-4.3,0-8,3.1-10.9,5.7
	v26.5h-5.5v-54.5h5.5v22.2c3.9-3.1,7.5-5.3,12.5-5.3c5.1,0,10.4,3.4,10.4,13.4v24.2H151.5z M116.2,306.3c-5.2,0-7.7-3.1-7.7-7.8
	v-24.8h-5.8v-4.8h5.8v-8.1l5.5-1.9v10h11l-2,4.8h-9v23.1c0,3.1,1.1,4.5,3.5,4.5c2.6,0,4.9-1.5,6.4-2.6l1.7,4
	C123.1,304.7,119.6,306.3,116.2,306.3z M603.4,389.9c-9.9,0-14.7-5.9-14.7-15v-47.4h-11.2v-9.2h11.2V303l10.6-3.7v19.1h21l-3.8,9.2
	h-17.3v44.2c0,5.9,2.2,8.6,6.7,8.6c4.9,0,9.4-2.8,12.2-5l3.3,7.7C616.4,386.8,609.7,389.9,603.4,389.9z M546.1,389.9
	c-9.9,0-15.8-2.7-20.3-5.3l4.1-8.4c3.2,2.1,9.1,5,16.7,5c8.4,0,14.5-3.9,14.5-10.4c0-17.2-31.2-11.1-31.2-35.7
	c0-10.1,7.1-18.5,22.8-18.5c7.3,0,12.8,1.6,17.3,3.7v9.5c-4.8-2.1-9.7-4.1-16.8-4.1c-7,0-12.8,2.5-12.8,8.9
	c0,15.7,31.8,11.7,31.8,34.7C572.1,383.9,560.8,389.9,546.1,389.9z M509.5,388.4l-2.8-7.3c-5.1,4.4-13.1,8.7-22.2,8.7
	c-9.3,0-20.9-4.9-20.9-24.6v-47h10.6v45.9c0,11.7,4.8,16.3,13.3,16.3c8.7,0,15.4-5.6,18.3-9.3v-52.9h10.6v40.7
	c0,22.1,0.4,26.4,1.5,29.3H509.5z M451.3,329.2c-1.5-0.6-3.6-1.2-6.2-1.2c-4.6,0-9.6,2.8-15.4,8.4v52H419v-70.1h8.7l1.4,8
	c9.4-8.7,14.7-9.8,19-9.8c3.6,0,6.2,1.2,7.5,2.1L451.3,329.2z M392.8,389.9c-9.9,0-14.7-5.9-14.7-15v-47.4H367v-9.2h11.2V303
	l10.6-3.7v19.1h21l-3.8,9.2h-17.3v44.2c0,5.9,2.2,8.6,6.7,8.6c4.9,0,9.4-2.8,12.2-5l3.3,7.7C405.9,386.8,399.2,389.9,392.8,389.9z
	 M352.8,334.8c-2.9-1.8-5.9-2.2-8-2.2c-4.4,0-8.1,1.6-13.3,6.2v49.6h-17.4v-70.1h14.7l2,7.4c7-6.4,12.3-9,18.7-9c3.5,0,7.3,1,9.9,3
	L352.8,334.8z M269.6,330.8c-11,0-16.4,9.5-16.4,22.5c0,13.6,6.2,22.8,16.8,22.8c10.9,0,16.4-9.6,16.4-22.8
	C286.4,339.9,280.3,330.8,269.6,330.8z M294.5,379.9c-6.1,6.4-14.5,10.1-24.8,10.1c-9.6,0-17.7-3.1-23.7-8.7
	c-6.8-6.5-10.6-16.1-10.6-27.4c0-11,3.6-20.4,10-27.1c6.1-6.2,14.4-9.9,24.4-9.9c10.6,0,19.3,3.7,25.2,10.1
	c6.1,6.5,9.1,15.7,9.1,26.4C304.3,363.9,300.9,373.3,294.5,379.9z M208.3,331.8c-2.3-0.6-4.4-1-8.1-1c-12.3,0-21.2,8.4-21.2,22.2
	c0,12.7,8.1,22.2,21.5,22.2c2.8,0,5.8-0.4,7.8-1V331.8z M198.9,389.9c-20.5,0-37.3-12.3-37.3-36c0-21.8,15.8-37.2,38-37.2
	c3.5,0,6.2,0.1,8.7,0.6v-33.8h17.4v100.8C219.2,387.7,210.7,389.9,198.9,389.9z M91.2,305.8H66.9v82.7H49.2v-82.7H21.5v-15h73.9
	L91.2,305.8z M138.5,388.4l-3-7c-4.8,4.4-11.9,8.4-21,8.4c-9,0-23.2-4.7-23.2-27.3v-44.3h17.4v43.3c0,8.7,3.9,14.2,12.3,14.2
	c5.7,0,10.3-3.1,13.2-5.8v-51.7h17.4V369c0,10.8,0.1,15.9,1.3,19.4H138.5z"/>
</svg>
